# MagicaVoxel @ Ephtracy

# group
g carrot2d

# material
mtllib carrot2d.mtl
usemtl palette

# normals
vn -1 0 0
vn 1 0 0
vn 0 0 1
vn 0 0 -1
vn 0 -1 0
vn 0 1 0

# texcoords
vt 0.0605469 0.5
vt 0.0839844 0.5
vt 0.0878906 0.5
vt 0.896484 0.5
vt 0.900391 0.5
vt 0.904297 0.5

# verts
v 11 2 7
v 11 2 4
v 11 3 6
v 11 3 4
v 11 3 2
v 11 4 6
v 11 4 5
v 11 4 4
v 11 4 3
v 11 4 2
v 11 4 1
v 11 5 7
v 11 5 6
v 11 5 5
v 11 5 4
v 11 5 3
v 11 5 2
v 11 5 1
v 11 5 -0
v 11 6 5
v 11 6 4
v 11 6 3
v 11 6 2
v 11 6 -0
v 11 6 -1
v 11 7 6
v 11 7 5
v 11 7 4
v 11 7 3
v 11 7 2
v 11 7 1
v 11 7 -1
v 11 7 -2
v 11 8 5
v 11 8 4
v 11 8 3
v 11 8 2
v 11 8 1
v 11 8 -0
v 11 8 -1
v 11 8 -2
v 11 8 -3
v 11 9 4
v 11 9 3
v 11 9 2
v 11 9 1
v 11 9 -0
v 11 9 -1
v 11 9 -2
v 11 9 -3
v 11 9 -4
v 11 10 3
v 11 10 2
v 11 10 1
v 11 10 -0
v 11 10 -1
v 11 10 -2
v 11 10 -3
v 11 10 -4
v 11 10 -5
v 11 11 2
v 11 11 1
v 11 11 -0
v 11 11 -1
v 11 11 -2
v 11 11 -3
v 11 12 1
v 11 12 -0
v 11 12 -1
v 11 12 -2
v 11 12 -3
v 11 12 -4
v 11 12 -5
v 11 12 -6
v 11 12 -8
v 11 12 -9
v 11 13 -0
v 11 13 -1
v 11 13 -3
v 11 13 -4
v 11 13 -5
v 11 13 -6
v 11 13 -7
v 11 13 -8
v 11 13 -9
v 11 14 -1
v 11 14 -3
v 11 14 -4
v 11 14 -5
v 11 14 -6
v 11 14 -7
v 11 14 -8
v 11 15 -3
v 11 15 -4
v 11 15 -5
v 11 15 -6
v 11 15 -7
v 11 15 -8
v 11 16 -5
v 11 16 -6
v 11 16 -7
v 11 16 -9
v 11 16 -10
v 11 17 -3
v 11 17 -4
v 11 17 -5
v 11 17 -6
v 11 17 -7
v 11 17 -8
v 11 17 -9
v 11 17 -10
v 11 18 -3
v 11 18 -5
v 11 18 -6
v 11 18 -7
v 11 18 -8
v 11 18 -9
v 11 18 -10
v 11 19 -6
v 11 19 -7
v 11 19 -8
v 11 19 -9
v 11 19 -10
v 11 19 -11
v 11 20 -6
v 11 20 -7
v 11 20 -8
v 11 20 -9
v 11 20 -10
v 11 20 -11
v 11 21 -9
v 11 21 -10
v 12 2 7
v 12 2 4
v 12 3 6
v 12 3 4
v 12 3 2
v 12 4 6
v 12 4 5
v 12 4 4
v 12 4 3
v 12 4 2
v 12 4 1
v 12 5 7
v 12 5 6
v 12 5 5
v 12 5 4
v 12 5 3
v 12 5 2
v 12 5 1
v 12 5 -0
v 12 6 5
v 12 6 4
v 12 6 3
v 12 6 2
v 12 6 -0
v 12 6 -1
v 12 7 6
v 12 7 5
v 12 7 4
v 12 7 3
v 12 7 2
v 12 7 1
v 12 7 -1
v 12 7 -2
v 12 8 5
v 12 8 4
v 12 8 3
v 12 8 2
v 12 8 1
v 12 8 -0
v 12 8 -1
v 12 8 -2
v 12 8 -3
v 12 9 4
v 12 9 3
v 12 9 2
v 12 9 1
v 12 9 -0
v 12 9 -1
v 12 9 -2
v 12 9 -3
v 12 9 -4
v 12 10 3
v 12 10 2
v 12 10 1
v 12 10 -0
v 12 10 -1
v 12 10 -2
v 12 10 -3
v 12 10 -4
v 12 10 -5
v 12 11 2
v 12 11 1
v 12 11 -0
v 12 11 -1
v 12 11 -2
v 12 11 -3
v 12 12 1
v 12 12 -0
v 12 12 -1
v 12 12 -2
v 12 12 -3
v 12 12 -4
v 12 12 -5
v 12 12 -6
v 12 12 -8
v 12 12 -9
v 12 13 -0
v 12 13 -1
v 12 13 -3
v 12 13 -4
v 12 13 -5
v 12 13 -6
v 12 13 -7
v 12 13 -8
v 12 13 -9
v 12 14 -1
v 12 14 -3
v 12 14 -4
v 12 14 -5
v 12 14 -6
v 12 14 -7
v 12 14 -8
v 12 15 -3
v 12 15 -4
v 12 15 -5
v 12 15 -6
v 12 15 -7
v 12 15 -8
v 12 16 -5
v 12 16 -6
v 12 16 -7
v 12 16 -9
v 12 16 -10
v 12 17 -3
v 12 17 -4
v 12 17 -5
v 12 17 -6
v 12 17 -7
v 12 17 -8
v 12 17 -9
v 12 17 -10
v 12 18 -3
v 12 18 -5
v 12 18 -6
v 12 18 -7
v 12 18 -8
v 12 18 -9
v 12 18 -10
v 12 19 -6
v 12 19 -7
v 12 19 -8
v 12 19 -9
v 12 19 -10
v 12 19 -11
v 12 20 -6
v 12 20 -7
v 12 20 -8
v 12 20 -9
v 12 20 -10
v 12 20 -11
v 12 21 -9
v 12 21 -10
v 11 2 7
v 11 5 7
v 12 2 7
v 12 5 7
v 11 5 6
v 11 7 6
v 12 5 6
v 12 7 6
v 11 7 5
v 11 8 5
v 12 7 5
v 12 8 5
v 11 8 4
v 11 9 4
v 12 8 4
v 12 9 4
v 11 9 3
v 11 10 3
v 12 9 3
v 12 10 3
v 11 10 2
v 11 11 2
v 12 10 2
v 12 11 2
v 11 11 1
v 11 12 1
v 12 11 1
v 12 12 1
v 11 12 -0
v 11 13 -0
v 12 12 -0
v 12 13 -0
v 11 13 -1
v 11 14 -1
v 12 13 -1
v 12 14 -1
v 11 14 -3
v 11 15 -3
v 11 17 -3
v 11 18 -3
v 12 14 -3
v 12 15 -3
v 12 17 -3
v 12 18 -3
v 11 15 -4
v 11 17 -4
v 12 15 -4
v 12 17 -4
v 11 17 -6
v 11 18 -6
v 11 19 -6
v 11 20 -6
v 12 17 -6
v 12 18 -6
v 12 19 -6
v 12 20 -6
v 11 18 -7
v 11 19 -7
v 12 18 -7
v 12 19 -7
v 11 12 -8
v 11 13 -8
v 11 19 -8
v 11 20 -8
v 12 12 -8
v 12 13 -8
v 12 19 -8
v 12 20 -8
v 11 16 -9
v 11 17 -9
v 11 20 -9
v 11 21 -9
v 12 16 -9
v 12 17 -9
v 12 20 -9
v 12 21 -9
v 11 2 4
v 11 3 4
v 12 2 4
v 12 3 4
v 11 3 2
v 11 4 2
v 12 3 2
v 12 4 2
v 11 4 1
v 11 5 1
v 12 4 1
v 12 5 1
v 11 5 -0
v 11 6 -0
v 12 5 -0
v 12 6 -0
v 11 6 -1
v 11 7 -1
v 12 6 -1
v 12 7 -1
v 11 7 -2
v 11 8 -2
v 12 7 -2
v 12 8 -2
v 11 8 -3
v 11 9 -3
v 12 8 -3
v 12 9 -3
v 11 9 -4
v 11 10 -4
v 12 9 -4
v 12 10 -4
v 11 10 -5
v 11 12 -5
v 11 17 -5
v 11 18 -5
v 12 10 -5
v 12 12 -5
v 12 17 -5
v 12 18 -5
v 11 12 -6
v 11 13 -6
v 12 12 -6
v 12 13 -6
v 11 14 -7
v 11 15 -7
v 11 19 -7
v 11 20 -7
v 12 14 -7
v 12 15 -7
v 12 19 -7
v 12 20 -7
v 11 13 -8
v 11 14 -8
v 11 15 -8
v 11 17 -8
v 12 13 -8
v 12 14 -8
v 12 15 -8
v 12 17 -8
v 11 12 -9
v 11 13 -9
v 11 17 -9
v 11 18 -9
v 12 12 -9
v 12 13 -9
v 12 17 -9
v 12 18 -9
v 11 16 -10
v 11 17 -10
v 11 18 -10
v 11 19 -10
v 11 20 -10
v 11 21 -10
v 12 16 -10
v 12 17 -10
v 12 18 -10
v 12 19 -10
v 12 20 -10
v 12 21 -10
v 11 19 -11
v 11 20 -11
v 12 19 -11
v 12 20 -11
v 11 2 7
v 12 2 7
v 11 2 4
v 12 2 4
v 11 3 4
v 12 3 4
v 11 3 2
v 12 3 2
v 11 4 2
v 12 4 2
v 11 4 1
v 12 4 1
v 11 5 1
v 12 5 1
v 11 5 -0
v 12 5 -0
v 11 6 -0
v 12 6 -0
v 11 6 -1
v 12 6 -1
v 11 7 -1
v 12 7 -1
v 11 7 -2
v 12 7 -2
v 11 8 -2
v 12 8 -2
v 11 8 -3
v 12 8 -3
v 11 9 -3
v 12 9 -3
v 11 9 -4
v 12 9 -4
v 11 10 -4
v 12 10 -4
v 11 10 -5
v 12 10 -5
v 11 12 -5
v 12 12 -5
v 11 12 -6
v 12 12 -6
v 11 12 -8
v 12 12 -8
v 11 12 -9
v 12 12 -9
v 11 13 -6
v 12 13 -6
v 11 13 -7
v 12 13 -7
v 11 13 -8
v 12 13 -8
v 11 15 -7
v 12 15 -7
v 11 15 -8
v 12 15 -8
v 11 16 -9
v 12 16 -9
v 11 16 -10
v 12 16 -10
v 11 17 -3
v 12 17 -3
v 11 17 -4
v 12 17 -4
v 11 17 -8
v 12 17 -8
v 11 17 -9
v 12 17 -9
v 11 18 -9
v 12 18 -9
v 11 18 -10
v 12 18 -10
v 11 19 -6
v 12 19 -6
v 11 19 -7
v 12 19 -7
v 11 19 -10
v 12 19 -10
v 11 19 -11
v 12 19 -11
v 11 5 7
v 12 5 7
v 11 5 6
v 12 5 6
v 11 7 6
v 12 7 6
v 11 7 5
v 12 7 5
v 11 8 5
v 12 8 5
v 11 8 4
v 12 8 4
v 11 9 4
v 12 9 4
v 11 9 3
v 12 9 3
v 11 10 3
v 12 10 3
v 11 10 2
v 12 10 2
v 11 11 2
v 12 11 2
v 11 11 1
v 12 11 1
v 11 12 1
v 12 12 1
v 11 12 -0
v 12 12 -0
v 11 13 -0
v 12 13 -0
v 11 13 -1
v 12 13 -1
v 11 13 -8
v 12 13 -8
v 11 13 -9
v 12 13 -9
v 11 14 -1
v 12 14 -1
v 11 14 -3
v 12 14 -3
v 11 14 -7
v 12 14 -7
v 11 14 -8
v 12 14 -8
v 11 15 -3
v 12 15 -3
v 11 15 -4
v 12 15 -4
v 11 17 -5
v 12 17 -5
v 11 17 -6
v 12 17 -6
v 11 17 -9
v 12 17 -9
v 11 17 -10
v 12 17 -10
v 11 18 -3
v 12 18 -3
v 11 18 -5
v 12 18 -5
v 11 18 -6
v 12 18 -6
v 11 18 -7
v 12 18 -7
v 11 19 -7
v 12 19 -7
v 11 19 -8
v 12 19 -8
v 11 20 -6
v 12 20 -6
v 11 20 -7
v 12 20 -7
v 11 20 -8
v 12 20 -8
v 11 20 -9
v 12 20 -9
v 11 20 -10
v 12 20 -10
v 11 20 -11
v 12 20 -11
v 11 21 -9
v 12 21 -9
v 11 21 -10
v 12 21 -10

# faces
f 3/2/1 2/2/1 1/2/1
f 4/2/1 2/2/1 3/2/1
f 6/2/1 3/2/1 1/2/1
f 6/3/1 4/3/1 3/3/1
f 7/3/1 4/3/1 6/3/1
f 8/2/1 5/2/1 4/2/1
f 8/3/1 4/3/1 7/3/1
f 9/2/1 5/2/1 8/2/1
f 10/2/1 5/2/1 9/2/1
f 12/2/1 6/2/1 1/2/1
f 13/1/1 7/1/1 6/1/1
f 13/2/1 6/2/1 12/2/1
f 14/2/1 8/2/1 7/2/1
f 14/1/1 7/1/1 13/1/1
f 15/3/1 9/3/1 8/3/1
f 15/2/1 8/2/1 14/2/1
f 16/2/1 11/2/1 10/2/1
f 16/3/1 9/3/1 15/3/1
f 16/2/1 10/2/1 9/2/1
f 17/2/1 11/2/1 16/2/1
f 18/2/1 11/2/1 17/2/1
f 20/3/1 15/3/1 14/3/1
f 20/2/1 14/2/1 13/2/1
f 21/1/1 16/1/1 15/1/1
f 21/3/1 15/3/1 20/3/1
f 22/2/1 17/2/1 16/2/1
f 22/1/1 16/1/1 21/1/1
f 23/3/1 18/3/1 17/3/1
f 23/2/1 17/2/1 22/2/1
f 24/2/1 19/2/1 18/2/1
f 26/2/1 20/2/1 13/2/1
f 27/1/1 21/1/1 20/1/1
f 27/2/1 20/2/1 26/2/1
f 28/2/1 22/2/1 21/2/1
f 28/1/1 21/1/1 27/1/1
f 29/1/1 23/1/1 22/1/1
f 29/2/1 22/2/1 28/2/1
f 30/3/1 18/3/1 23/3/1
f 30/1/1 23/1/1 29/1/1
f 31/2/1 25/2/1 24/2/1
f 31/3/1 18/3/1 30/3/1
f 31/2/1 24/2/1 18/2/1
f 32/2/1 25/2/1 31/2/1
f 34/2/1 28/2/1 27/2/1
f 35/1/1 29/1/1 28/1/1
f 35/2/1 28/2/1 34/2/1
f 36/3/1 30/3/1 29/3/1
f 36/1/1 29/1/1 35/1/1
f 37/2/1 31/2/1 30/2/1
f 37/3/1 30/3/1 36/3/1
f 38/3/1 32/3/1 31/3/1
f 38/2/1 31/2/1 37/2/1
f 39/3/1 32/3/1 38/3/1
f 40/2/1 33/2/1 32/2/1
f 40/3/1 32/3/1 39/3/1
f 41/2/1 33/2/1 40/2/1
f 43/2/1 36/2/1 35/2/1
f 44/1/1 37/1/1 36/1/1
f 44/2/1 36/2/1 43/2/1
f 44/1/1 38/1/1 37/1/1
f 45/1/1 38/1/1 44/1/1
f 46/3/1 39/3/1 38/3/1
f 46/1/1 38/1/1 45/1/1
f 47/2/1 40/2/1 39/2/1
f 47/3/1 39/3/1 46/3/1
f 48/3/1 41/3/1 40/3/1
f 48/2/1 40/2/1 47/2/1
f 49/2/1 42/2/1 41/2/1
f 49/3/1 41/3/1 48/3/1
f 50/2/1 42/2/1 49/2/1
f 52/2/1 45/2/1 44/2/1
f 53/1/1 46/1/1 45/1/1
f 53/2/1 45/2/1 52/2/1
f 54/2/1 47/2/1 46/2/1
f 54/1/1 46/1/1 53/1/1
f 55/3/1 48/3/1 47/3/1
f 55/2/1 47/2/1 54/2/1
f 55/3/1 50/3/1 49/3/1
f 55/3/1 49/3/1 48/3/1
f 56/3/1 50/3/1 55/3/1
f 57/3/1 50/3/1 56/3/1
f 58/2/1 51/2/1 50/2/1
f 58/3/1 50/3/1 57/3/1
f 59/2/1 51/2/1 58/2/1
f 61/2/1 54/2/1 53/2/1
f 62/1/1 55/1/1 54/1/1
f 62/2/1 54/2/1 61/2/1
f 62/1/1 56/1/1 55/1/1
f 63/1/1 56/1/1 62/1/1
f 64/3/1 57/3/1 56/3/1
f 64/1/1 56/1/1 63/1/1
f 65/2/1 58/2/1 57/2/1
f 65/3/1 57/3/1 64/3/1
f 66/3/1 59/3/1 58/3/1
f 66/2/1 58/2/1 65/2/1
f 67/2/1 63/2/1 62/2/1
f 68/1/1 64/1/1 63/1/1
f 68/2/1 63/2/1 67/2/1
f 69/2/1 65/2/1 64/2/1
f 69/1/1 64/1/1 68/1/1
f 70/1/1 66/1/1 65/1/1
f 70/2/1 65/2/1 69/2/1
f 71/3/1 59/3/1 66/3/1
f 71/1/1 66/1/1 70/1/1
f 72/2/1 60/2/1 59/2/1
f 72/3/1 59/3/1 71/3/1
f 73/2/1 60/2/1 72/2/1
f 77/2/1 69/2/1 68/2/1
f 78/1/1 70/1/1 69/1/1
f 78/2/1 69/2/1 77/2/1
f 78/1/1 71/1/1 70/1/1
f 78/1/1 72/1/1 71/1/1
f 79/1/1 72/1/1 78/1/1
f 80/4/1 73/4/1 72/4/1
f 80/1/1 72/1/1 79/1/1
f 81/5/1 74/5/1 73/5/1
f 81/4/1 73/4/1 80/4/1
f 82/5/1 74/5/1 81/5/1
f 84/6/1 76/6/1 75/6/1
f 85/6/1 76/6/1 84/6/1
f 86/2/1 79/2/1 78/2/1
f 87/4/1 80/4/1 79/4/1
f 87/2/1 79/2/1 86/2/1
f 88/5/1 81/5/1 80/5/1
f 88/4/1 80/4/1 87/4/1
f 89/4/1 82/4/1 81/4/1
f 89/5/1 81/5/1 88/5/1
f 90/5/1 83/5/1 82/5/1
f 90/4/1 82/4/1 89/4/1
f 91/6/1 84/6/1 83/6/1
f 91/5/1 83/5/1 90/5/1
f 92/6/1 84/6/1 91/6/1
f 93/5/1 88/5/1 87/5/1
f 94/6/1 89/6/1 88/6/1
f 94/5/1 88/5/1 93/5/1
f 95/5/1 90/5/1 89/5/1
f 95/6/1 89/6/1 94/6/1
f 96/4/1 91/4/1 90/4/1
f 96/5/1 90/5/1 95/5/1
f 97/4/1 91/4/1 96/4/1
f 99/4/1 95/4/1 94/4/1
f 99/6/1 96/6/1 95/6/1
f 100/5/1 98/5/1 97/5/1
f 100/6/1 96/6/1 99/6/1
f 100/5/1 97/5/1 96/5/1
f 101/5/1 98/5/1 100/5/1
f 105/4/1 99/4/1 94/4/1
f 106/5/1 100/5/1 99/5/1
f 106/4/1 99/4/1 105/4/1
f 107/6/1 101/6/1 100/6/1
f 107/5/1 100/5/1 106/5/1
f 108/5/1 98/5/1 101/5/1
f 108/6/1 101/6/1 107/6/1
f 109/5/1 98/5/1 108/5/1
f 110/6/1 103/6/1 102/6/1
f 111/6/1 103/6/1 110/6/1
f 112/6/1 106/6/1 105/6/1
f 112/6/1 105/6/1 104/6/1
f 113/6/1 106/6/1 112/6/1
f 114/5/1 108/5/1 107/5/1
f 115/4/1 109/4/1 108/4/1
f 115/5/1 108/5/1 114/5/1
f 116/6/1 110/6/1 109/6/1
f 116/4/1 109/4/1 115/4/1
f 117/6/1 110/6/1 116/6/1
f 120/5/1 117/5/1 116/5/1
f 120/5/1 116/5/1 115/5/1
f 121/5/1 117/5/1 120/5/1
f 122/6/1 118/6/1 117/6/1
f 122/5/1 117/5/1 121/5/1
f 123/6/1 118/6/1 122/6/1
f 125/4/1 120/4/1 119/4/1
f 126/4/1 120/4/1 125/4/1
f 127/4/1 122/4/1 121/4/1
f 128/5/1 123/5/1 122/5/1
f 128/4/1 122/4/1 127/4/1
f 129/6/1 124/6/1 123/6/1
f 129/5/1 123/5/1 128/5/1
f 130/6/1 124/6/1 129/6/1
f 131/6/1 129/6/1 128/6/1
f 132/6/1 129/6/1 131/6/1
f 133/2/2 134/2/2 135/2/2
f 135/2/2 134/2/2 136/2/2
f 133/2/2 135/2/2 138/2/2
f 135/3/2 136/3/2 138/3/2
f 138/3/2 136/3/2 139/3/2
f 136/2/2 137/2/2 140/2/2
f 139/3/2 136/3/2 140/3/2
f 140/2/2 137/2/2 141/2/2
f 141/2/2 137/2/2 142/2/2
f 133/2/2 138/2/2 144/2/2
f 138/1/2 139/1/2 145/1/2
f 144/2/2 138/2/2 145/2/2
f 139/2/2 140/2/2 146/2/2
f 145/1/2 139/1/2 146/1/2
f 140/3/2 141/3/2 147/3/2
f 146/2/2 140/2/2 147/2/2
f 142/2/2 143/2/2 148/2/2
f 147/3/2 141/3/2 148/3/2
f 141/2/2 142/2/2 148/2/2
f 148/2/2 143/2/2 149/2/2
f 149/2/2 143/2/2 150/2/2
f 146/3/2 147/3/2 152/3/2
f 145/2/2 146/2/2 152/2/2
f 147/1/2 148/1/2 153/1/2
f 152/3/2 147/3/2 153/3/2
f 148/2/2 149/2/2 154/2/2
f 153/1/2 148/1/2 154/1/2
f 149/3/2 150/3/2 155/3/2
f 154/2/2 149/2/2 155/2/2
f 150/2/2 151/2/2 156/2/2
f 145/2/2 152/2/2 158/2/2
f 152/1/2 153/1/2 159/1/2
f 158/2/2 152/2/2 159/2/2
f 153/2/2 154/2/2 160/2/2
f 159/1/2 153/1/2 160/1/2
f 154/1/2 155/1/2 161/1/2
f 160/2/2 154/2/2 161/2/2
f 155/3/2 150/3/2 162/3/2
f 161/1/2 155/1/2 162/1/2
f 156/2/2 157/2/2 163/2/2
f 162/3/2 150/3/2 163/3/2
f 150/2/2 156/2/2 163/2/2
f 163/2/2 157/2/2 164/2/2
f 159/2/2 160/2/2 166/2/2
f 160/1/2 161/1/2 167/1/2
f 166/2/2 160/2/2 167/2/2
f 161/3/2 162/3/2 168/3/2
f 167/1/2 161/1/2 168/1/2
f 162/2/2 163/2/2 169/2/2
f 168/3/2 162/3/2 169/3/2
f 163/3/2 164/3/2 170/3/2
f 169/2/2 163/2/2 170/2/2
f 170/3/2 164/3/2 171/3/2
f 164/2/2 165/2/2 172/2/2
f 171/3/2 164/3/2 172/3/2
f 172/2/2 165/2/2 173/2/2
f 167/2/2 168/2/2 175/2/2
f 168/1/2 169/1/2 176/1/2
f 175/2/2 168/2/2 176/2/2
f 169/1/2 170/1/2 176/1/2
f 176/1/2 170/1/2 177/1/2
f 170/3/2 171/3/2 178/3/2
f 177/1/2 170/1/2 178/1/2
f 171/2/2 172/2/2 179/2/2
f 178/3/2 171/3/2 179/3/2
f 172/3/2 173/3/2 180/3/2
f 179/2/2 172/2/2 180/2/2
f 173/2/2 174/2/2 181/2/2
f 180/3/2 173/3/2 181/3/2
f 181/2/2 174/2/2 182/2/2
f 176/2/2 177/2/2 184/2/2
f 177/1/2 178/1/2 185/1/2
f 184/2/2 177/2/2 185/2/2
f 178/2/2 179/2/2 186/2/2
f 185/1/2 178/1/2 186/1/2
f 179/3/2 180/3/2 187/3/2
f 186/2/2 179/2/2 187/2/2
f 181/3/2 182/3/2 187/3/2
f 180/3/2 181/3/2 187/3/2
f 187/3/2 182/3/2 188/3/2
f 188/3/2 182/3/2 189/3/2
f 182/2/2 183/2/2 190/2/2
f 189/3/2 182/3/2 190/3/2
f 190/2/2 183/2/2 191/2/2
f 185/2/2 186/2/2 193/2/2
f 186/1/2 187/1/2 194/1/2
f 193/2/2 186/2/2 194/2/2
f 187/1/2 188/1/2 194/1/2
f 194/1/2 188/1/2 195/1/2
f 188/3/2 189/3/2 196/3/2
f 195/1/2 188/1/2 196/1/2
f 189/2/2 190/2/2 197/2/2
f 196/3/2 189/3/2 197/3/2
f 190/3/2 191/3/2 198/3/2
f 197/2/2 190/2/2 198/2/2
f 194/2/2 195/2/2 199/2/2
f 195/1/2 196/1/2 200/1/2
f 199/2/2 195/2/2 200/2/2
f 196/2/2 197/2/2 201/2/2
f 200/1/2 196/1/2 201/1/2
f 197/1/2 198/1/2 202/1/2
f 201/2/2 197/2/2 202/2/2
f 198/3/2 191/3/2 203/3/2
f 202/1/2 198/1/2 203/1/2
f 191/2/2 192/2/2 204/2/2
f 203/3/2 191/3/2 204/3/2
f 204/2/2 192/2/2 205/2/2
f 200/2/2 201/2/2 209/2/2
f 201/1/2 202/1/2 210/1/2
f 209/2/2 201/2/2 210/2/2
f 202/1/2 203/1/2 210/1/2
f 203/1/2 204/1/2 210/1/2
f 210/1/2 204/1/2 211/1/2
f 204/4/2 205/4/2 212/4/2
f 211/1/2 204/1/2 212/1/2
f 205/5/2 206/5/2 213/5/2
f 212/4/2 205/4/2 213/4/2
f 213/5/2 206/5/2 214/5/2
f 207/6/2 208/6/2 216/6/2
f 216/6/2 208/6/2 217/6/2
f 210/2/2 211/2/2 218/2/2
f 211/4/2 212/4/2 219/4/2
f 218/2/2 211/2/2 219/2/2
f 212/5/2 213/5/2 220/5/2
f 219/4/2 212/4/2 220/4/2
f 213/4/2 214/4/2 221/4/2
f 220/5/2 213/5/2 221/5/2
f 214/5/2 215/5/2 222/5/2
f 221/4/2 214/4/2 222/4/2
f 215/6/2 216/6/2 223/6/2
f 222/5/2 215/5/2 223/5/2
f 223/6/2 216/6/2 224/6/2
f 219/5/2 220/5/2 225/5/2
f 220/6/2 221/6/2 226/6/2
f 225/5/2 220/5/2 226/5/2
f 221/5/2 222/5/2 227/5/2
f 226/6/2 221/6/2 227/6/2
f 222/4/2 223/4/2 228/4/2
f 227/5/2 222/5/2 228/5/2
f 228/4/2 223/4/2 229/4/2
f 226/4/2 227/4/2 231/4/2
f 227/6/2 228/6/2 231/6/2
f 229/5/2 230/5/2 232/5/2
f 231/6/2 228/6/2 232/6/2
f 228/5/2 229/5/2 232/5/2
f 232/5/2 230/5/2 233/5/2
f 226/4/2 231/4/2 237/4/2
f 231/5/2 232/5/2 238/5/2
f 237/4/2 231/4/2 238/4/2
f 232/6/2 233/6/2 239/6/2
f 238/5/2 232/5/2 239/5/2
f 233/5/2 230/5/2 240/5/2
f 239/6/2 233/6/2 240/6/2
f 240/5/2 230/5/2 241/5/2
f 234/6/2 235/6/2 242/6/2
f 242/6/2 235/6/2 243/6/2
f 237/6/2 238/6/2 244/6/2
f 236/6/2 237/6/2 244/6/2
f 244/6/2 238/6/2 245/6/2
f 239/5/2 240/5/2 246/5/2
f 240/4/2 241/4/2 247/4/2
f 246/5/2 240/5/2 247/5/2
f 241/6/2 242/6/2 248/6/2
f 247/4/2 241/4/2 248/4/2
f 248/6/2 242/6/2 249/6/2
f 248/5/2 249/5/2 252/5/2
f 247/5/2 248/5/2 252/5/2
f 252/5/2 249/5/2 253/5/2
f 249/6/2 250/6/2 254/6/2
f 253/5/2 249/5/2 254/5/2
f 254/6/2 250/6/2 255/6/2
f 251/4/2 252/4/2 257/4/2
f 257/4/2 252/4/2 258/4/2
f 253/4/2 254/4/2 259/4/2
f 254/5/2 255/5/2 260/5/2
f 259/4/2 254/4/2 260/4/2
f 255/6/2 256/6/2 261/6/2
f 260/5/2 255/5/2 261/5/2
f 261/6/2 256/6/2 262/6/2
f 260/6/2 261/6/2 263/6/2
f 263/6/2 261/6/2 264/6/2
f 267/2/3 266/2/3 265/2/3
f 268/2/3 266/2/3 267/2/3
f 271/2/3 270/2/3 269/2/3
f 272/2/3 270/2/3 271/2/3
f 275/2/3 274/2/3 273/2/3
f 276/2/3 274/2/3 275/2/3
f 279/2/3 278/2/3 277/2/3
f 280/2/3 278/2/3 279/2/3
f 283/2/3 282/2/3 281/2/3
f 284/2/3 282/2/3 283/2/3
f 287/2/3 286/2/3 285/2/3
f 288/2/3 286/2/3 287/2/3
f 291/2/3 290/2/3 289/2/3
f 292/2/3 290/2/3 291/2/3
f 295/2/3 294/2/3 293/2/3
f 296/2/3 294/2/3 295/2/3
f 299/2/3 298/2/3 297/2/3
f 300/2/3 298/2/3 299/2/3
f 305/5/3 302/5/3 301/5/3
f 306/5/3 302/5/3 305/5/3
f 307/6/3 304/6/3 303/6/3
f 308/6/3 304/6/3 307/6/3
f 311/4/3 310/4/3 309/4/3
f 312/4/3 310/4/3 311/4/3
f 317/5/3 314/5/3 313/5/3
f 318/5/3 314/5/3 317/5/3
f 319/4/3 316/4/3 315/4/3
f 320/4/3 316/4/3 319/4/3
f 323/5/3 322/5/3 321/5/3
f 324/5/3 322/5/3 323/5/3
f 329/6/3 326/6/3 325/6/3
f 330/6/3 326/6/3 329/6/3
f 331/4/3 328/4/3 327/4/3
f 332/4/3 328/4/3 331/4/3
f 337/6/3 334/6/3 333/6/3
f 338/6/3 334/6/3 337/6/3
f 339/6/3 336/6/3 335/6/3
f 340/6/3 336/6/3 339/6/3
f 341/2/4 342/2/4 343/2/4
f 343/2/4 342/2/4 344/2/4
f 345/2/4 346/2/4 347/2/4
f 347/2/4 346/2/4 348/2/4
f 349/2/4 350/2/4 351/2/4
f 351/2/4 350/2/4 352/2/4
f 353/2/4 354/2/4 355/2/4
f 355/2/4 354/2/4 356/2/4
f 357/2/4 358/2/4 359/2/4
f 359/2/4 358/2/4 360/2/4
f 361/2/4 362/2/4 363/2/4
f 363/2/4 362/2/4 364/2/4
f 365/2/4 366/2/4 367/2/4
f 367/2/4 366/2/4 368/2/4
f 369/2/4 370/2/4 371/2/4
f 371/2/4 370/2/4 372/2/4
f 373/2/4 374/2/4 377/2/4
f 377/2/4 374/2/4 378/2/4
f 375/6/4 376/6/4 379/6/4
f 379/6/4 376/6/4 380/6/4
f 381/5/4 382/5/4 383/5/4
f 383/5/4 382/5/4 384/5/4
f 385/4/4 386/4/4 389/4/4
f 389/4/4 386/4/4 390/4/4
f 387/4/4 388/4/4 391/4/4
f 391/4/4 388/4/4 392/4/4
f 393/6/4 394/6/4 397/6/4
f 397/6/4 394/6/4 398/6/4
f 395/5/4 396/5/4 399/5/4
f 399/5/4 396/5/4 400/5/4
f 401/6/4 402/6/4 405/6/4
f 405/6/4 402/6/4 406/6/4
f 403/6/4 404/6/4 407/6/4
f 407/6/4 404/6/4 408/6/4
f 409/6/4 410/6/4 415/6/4
f 415/6/4 410/6/4 416/6/4
f 411/6/4 412/6/4 417/6/4
f 417/6/4 412/6/4 418/6/4
f 413/6/4 414/6/4 419/6/4
f 419/6/4 414/6/4 420/6/4
f 421/6/4 422/6/4 423/6/4
f 423/6/4 422/6/4 424/6/4
f 427/2/5 426/2/5 425/2/5
f 428/2/5 426/2/5 427/2/5
f 431/2/5 430/2/5 429/2/5
f 432/2/5 430/2/5 431/2/5
f 435/2/5 434/2/5 433/2/5
f 436/2/5 434/2/5 435/2/5
f 439/2/5 438/2/5 437/2/5
f 440/2/5 438/2/5 439/2/5
f 443/2/5 442/2/5 441/2/5
f 444/2/5 442/2/5 443/2/5
f 447/2/5 446/2/5 445/2/5
f 448/2/5 446/2/5 447/2/5
f 451/2/5 450/2/5 449/2/5
f 452/2/5 450/2/5 451/2/5
f 455/2/5 454/2/5 453/2/5
f 456/2/5 454/2/5 455/2/5
f 459/2/5 458/2/5 457/2/5
f 460/2/5 458/2/5 459/2/5
f 463/5/5 462/5/5 461/5/5
f 464/5/5 462/5/5 463/5/5
f 467/6/5 466/6/5 465/6/5
f 468/6/5 466/6/5 467/6/5
f 471/5/5 470/5/5 469/5/5
f 472/5/5 470/5/5 471/5/5
f 473/6/5 472/6/5 471/6/5
f 474/6/5 472/6/5 473/6/5
f 477/5/5 476/5/5 475/5/5
f 478/5/5 476/5/5 477/5/5
f 481/6/5 480/6/5 479/6/5
f 482/6/5 480/6/5 481/6/5
f 485/6/5 484/6/5 483/6/5
f 486/6/5 484/6/5 485/6/5
f 489/6/5 488/6/5 487/6/5
f 490/6/5 488/6/5 489/6/5
f 493/6/5 492/6/5 491/6/5
f 494/6/5 492/6/5 493/6/5
f 497/4/5 496/4/5 495/4/5
f 498/4/5 496/4/5 497/4/5
f 501/6/5 500/6/5 499/6/5
f 502/6/5 500/6/5 501/6/5
f 503/2/6 504/2/6 505/2/6
f 505/2/6 504/2/6 506/2/6
f 507/2/6 508/2/6 509/2/6
f 509/2/6 508/2/6 510/2/6
f 511/2/6 512/2/6 513/2/6
f 513/2/6 512/2/6 514/2/6
f 515/2/6 516/2/6 517/2/6
f 517/2/6 516/2/6 518/2/6
f 519/2/6 520/2/6 521/2/6
f 521/2/6 520/2/6 522/2/6
f 523/2/6 524/2/6 525/2/6
f 525/2/6 524/2/6 526/2/6
f 527/2/6 528/2/6 529/2/6
f 529/2/6 528/2/6 530/2/6
f 531/2/6 532/2/6 533/2/6
f 533/2/6 532/2/6 534/2/6
f 535/6/6 536/6/6 537/6/6
f 537/6/6 536/6/6 538/6/6
f 539/2/6 540/2/6 541/2/6
f 541/2/6 540/2/6 542/2/6
f 543/6/6 544/6/6 545/6/6
f 545/6/6 544/6/6 546/6/6
f 547/5/6 548/5/6 549/5/6
f 549/5/6 548/5/6 550/5/6
f 551/5/6 552/5/6 553/5/6
f 553/5/6 552/5/6 554/5/6
f 555/6/6 556/6/6 557/6/6
f 557/6/6 556/6/6 558/6/6
f 559/6/6 560/6/6 561/6/6
f 561/6/6 560/6/6 562/6/6
f 563/5/6 564/5/6 565/5/6
f 565/5/6 564/5/6 566/5/6
f 567/5/6 568/5/6 569/5/6
f 569/5/6 568/5/6 570/5/6
f 571/4/6 572/4/6 573/4/6
f 573/4/6 572/4/6 574/4/6
f 575/4/6 576/4/6 577/4/6
f 577/4/6 576/4/6 578/4/6
f 579/6/6 580/6/6 581/6/6
f 581/6/6 580/6/6 582/6/6
f 583/6/6 584/6/6 585/6/6
f 585/6/6 584/6/6 586/6/6
