# MagicaVoxel @ Ephtracy

# group
g springpanelpanel

# material
mtllib springpanelpanel.mtl
usemtl palette

# normals
vn -1 0 0
vn 1 0 0
vn 0 0 1
vn 0 0 -1
vn 0 -1 0
vn 0 1 0

# texcoords
vt 0.0292969 0.5
vt 0.302734 0.5
vt 0.322266 0.5
vt 0.541016 0.5
vt 0.556641 0.5

# verts
v -6 0 6
v -6 0 -6
v -6 1 6
v -6 1 5
v -6 1 4
v -6 1 2
v -6 1 1
v -6 1 -1
v -6 1 -2
v -6 1 -3
v -6 1 -4
v -6 1 -5
v -6 1 -6
v -6 2 5
v -6 2 4
v -6 2 2
v -6 2 1
v -6 2 -1
v -6 2 -2
v -6 2 -3
v -6 2 -4
v -6 2 -5
v -6 2 -6
v -5 1 6
v -5 1 5
v -5 1 4
v -5 1 3
v -5 1 2
v -5 1 1
v -5 1 -1
v -5 1 -2
v -5 1 -3
v -5 1 -4
v -5 1 -5
v -5 2 6
v -5 2 5
v -5 2 4
v -5 2 3
v -5 2 2
v -5 2 1
v -5 2 -1
v -5 2 -2
v -5 2 -3
v -5 2 -4
v -5 2 -5
v -3 1 6
v -3 1 5
v -3 1 -5
v -3 1 -6
v -3 2 6
v -3 2 5
v -3 2 -5
v -3 2 -6
v 0 1 -5
v 0 1 -6
v 0 2 -5
v 0 2 -6
v 1 1 6
v 1 1 5
v 1 2 6
v 1 2 5
v 3 1 -5
v 3 1 -6
v 3 2 -5
v 3 2 -6
v 4 1 6
v 4 1 5
v 4 2 6
v 4 2 5
v 5 1 -5
v 5 1 -6
v 5 2 -5
v 5 2 -6
v -5 1 -5
v -5 1 -6
v -5 2 -5
v -5 2 -6
v -4 1 6
v -4 1 5
v -4 2 6
v -4 2 5
v -2 1 6
v -2 1 5
v -2 1 -5
v -2 1 -6
v -2 2 6
v -2 2 5
v -2 2 -5
v -2 2 -6
v 1 1 -5
v 1 1 -6
v 1 2 -5
v 1 2 -6
v 2 1 6
v 2 1 5
v 2 2 6
v 2 2 5
v 4 1 -5
v 4 1 -6
v 4 2 -5
v 4 2 -6
v 5 1 6
v 5 1 5
v 5 1 4
v 5 1 3
v 5 1 2
v 5 1 1
v 5 1 -0
v 5 1 -1
v 5 1 -3
v 5 1 -4
v 5 1 -5
v 5 2 6
v 5 2 5
v 5 2 4
v 5 2 3
v 5 2 2
v 5 2 1
v 5 2 -0
v 5 2 -1
v 5 2 -3
v 5 2 -4
v 5 2 -5
v 6 0 6
v 6 0 -6
v 6 1 6
v 6 1 5
v 6 1 4
v 6 1 2
v 6 1 1
v 6 1 -0
v 6 1 -1
v 6 1 -3
v 6 1 -4
v 6 1 -5
v 6 1 -6
v 6 2 5
v 6 2 4
v 6 2 2
v 6 2 1
v 6 2 -0
v 6 2 -1
v 6 2 -3
v 6 2 -4
v 6 2 -5
v 6 2 -6
v -6 0 6
v -6 1 6
v -5 1 6
v -5 2 6
v -4 0 6
v -4 1 6
v -4 2 6
v -3 0 6
v -3 1 6
v -3 2 6
v -2 0 6
v -2 1 6
v -2 2 6
v -1 0 6
v -1 1 6
v 0 0 6
v 0 1 6
v 1 0 6
v 1 1 6
v 1 2 6
v 2 0 6
v 2 1 6
v 2 2 6
v 3 0 6
v 3 1 6
v 4 1 6
v 4 2 6
v 5 1 6
v 5 2 6
v 6 0 6
v 6 1 6
v -6 1 5
v -6 2 5
v -5 1 5
v -5 2 5
v -4 1 5
v -4 2 5
v -3 1 5
v -3 2 5
v -2 1 5
v -2 2 5
v -1 1 5
v 0 1 5
v 1 1 5
v 1 2 5
v 2 1 5
v 2 2 5
v 3 1 5
v 4 1 5
v 4 2 5
v 5 1 5
v 5 2 5
v 6 1 5
v 6 2 5
v -6 1 2
v -6 2 2
v -5 1 2
v -5 2 2
v 5 1 2
v 5 2 2
v 6 1 2
v 6 2 2
v 5 1 -0
v 5 2 -0
v 6 1 -0
v 6 2 -0
v -6 1 -1
v -6 2 -1
v -5 1 -1
v -5 2 -1
v -6 1 -3
v -6 2 -3
v -5 1 -3
v -5 2 -3
v 5 1 -3
v 5 2 -3
v 6 1 -3
v 6 2 -3
v -6 1 -5
v -6 2 -5
v -5 1 -5
v -5 2 -5
v 5 1 -5
v 5 2 -5
v 6 1 -5
v 6 2 -5
v -6 1 4
v -6 2 4
v -5 1 4
v -5 2 4
v 5 1 4
v 5 2 4
v 6 1 4
v 6 2 4
v -6 1 1
v -6 2 1
v -5 1 1
v -5 2 1
v 5 1 1
v 5 2 1
v 6 1 1
v 6 2 1
v 5 1 -1
v 5 2 -1
v 6 1 -1
v 6 2 -1
v -6 1 -2
v -6 2 -2
v -5 1 -2
v -5 2 -2
v -6 1 -4
v -6 2 -4
v -5 1 -4
v -5 2 -4
v 5 1 -4
v 5 2 -4
v 6 1 -4
v 6 2 -4
v -5 1 -5
v -5 2 -5
v -4 1 -5
v -4 2 -5
v -3 1 -5
v -3 2 -5
v -2 1 -5
v -2 2 -5
v -1 1 -5
v 0 1 -5
v 0 2 -5
v 1 1 -5
v 1 2 -5
v 2 1 -5
v 3 1 -5
v 3 2 -5
v 4 1 -5
v 4 2 -5
v 5 1 -5
v 5 2 -5
v -6 0 -6
v -6 1 -6
v -6 2 -6
v -5 1 -6
v -5 2 -6
v -4 0 -6
v -4 1 -6
v -3 0 -6
v -3 1 -6
v -3 2 -6
v -2 0 -6
v -2 1 -6
v -2 2 -6
v -1 0 -6
v -1 1 -6
v 0 1 -6
v 0 2 -6
v 1 1 -6
v 1 2 -6
v 2 0 -6
v 2 1 -6
v 3 0 -6
v 3 1 -6
v 3 2 -6
v 4 1 -6
v 4 2 -6
v 5 1 -6
v 5 2 -6
v 6 0 -6
v 6 1 -6
v 6 2 -6
v -6 0 6
v -4 0 6
v -3 0 6
v -2 0 6
v -1 0 6
v 0 0 6
v 1 0 6
v 2 0 6
v 3 0 6
v 6 0 6
v -2 0 5
v -1 0 5
v 0 0 5
v 1 0 5
v 2 0 5
v 3 0 5
v -4 0 4
v -3 0 4
v -4 0 -0
v -3 0 -0
v -4 0 -1
v -3 0 -1
v -4 0 -3
v -3 0 -3
v -4 0 -4
v -3 0 -4
v -4 0 -5
v -3 0 -5
v -2 0 -5
v -1 0 -5
v 2 0 -5
v 3 0 -5
v -6 0 -6
v -4 0 -6
v -3 0 -6
v -2 0 -6
v -1 0 -6
v 2 0 -6
v 3 0 -6
v 6 0 -6
v -6 1 6
v -5 1 6
v -4 1 6
v -3 1 6
v -2 1 6
v -1 1 6
v 0 1 6
v 1 1 6
v 2 1 6
v 3 1 6
v 4 1 6
v 5 1 6
v 6 1 6
v -6 1 5
v -5 1 5
v -4 1 5
v -3 1 5
v -2 1 5
v -1 1 5
v 0 1 5
v 1 1 5
v 2 1 5
v 3 1 5
v 4 1 5
v 5 1 5
v 6 1 5
v -6 1 4
v -5 1 4
v 5 1 4
v 6 1 4
v -5 1 3
v 5 1 3
v -6 1 2
v -5 1 2
v 5 1 2
v 6 1 2
v -6 1 1
v -5 1 1
v 5 1 1
v 6 1 1
v 5 1 -0
v 6 1 -0
v -6 1 -1
v -5 1 -1
v 5 1 -1
v 6 1 -1
v -6 1 -2
v -5 1 -2
v -6 1 -3
v -5 1 -3
v 5 1 -3
v 6 1 -3
v -6 1 -4
v -5 1 -4
v 5 1 -4
v 6 1 -4
v -6 1 -5
v -5 1 -5
v -4 1 -5
v -3 1 -5
v -2 1 -5
v -1 1 -5
v 0 1 -5
v 1 1 -5
v 2 1 -5
v 3 1 -5
v 4 1 -5
v 5 1 -5
v 6 1 -5
v -5 1 -6
v -4 1 -6
v -3 1 -6
v -2 1 -6
v -1 1 -6
v 0 1 -6
v 1 1 -6
v 2 1 -6
v 3 1 -6
v 4 1 -6
v 5 1 -6
v -5 2 6
v -4 2 6
v -3 2 6
v -2 2 6
v 1 2 6
v 2 2 6
v 4 2 6
v 5 2 6
v -6 2 5
v -5 2 5
v -4 2 5
v -3 2 5
v -2 2 5
v 1 2 5
v 2 2 5
v 4 2 5
v 5 2 5
v 6 2 5
v -6 2 4
v -5 2 4
v -3 2 4
v -2 2 4
v -1 2 4
v 5 2 4
v 6 2 4
v -5 2 3
v -4 2 3
v -2 2 3
v -1 2 3
v 1 2 3
v 2 2 3
v 3 2 3
v 4 2 3
v 5 2 3
v -6 2 2
v -5 2 2
v -4 2 2
v -3 2 2
v -1 2 2
v 1 2 2
v 2 2 2
v 3 2 2
v 4 2 2
v 5 2 2
v 6 2 2
v -6 2 1
v -5 2 1
v -3 2 1
v -1 2 1
v 3 2 1
v 4 2 1
v 5 2 1
v 6 2 1
v -4 2 -0
v -3 2 -0
v 0 2 -0
v 2 2 -0
v 3 2 -0
v 4 2 -0
v 5 2 -0
v 6 2 -0
v -6 2 -1
v -5 2 -1
v -4 2 -1
v -3 2 -1
v 0 2 -1
v 1 2 -1
v 2 2 -1
v 3 2 -1
v 5 2 -1
v 6 2 -1
v -6 2 -2
v -5 2 -2
v -3 2 -2
v 1 2 -2
v 2 2 -2
v -6 2 -3
v -5 2 -3
v -1 2 -3
v 0 2 -3
v 1 2 -3
v 2 2 -3
v 5 2 -3
v 6 2 -3
v -6 2 -4
v -5 2 -4
v -4 2 -4
v -1 2 -4
v 0 2 -4
v 1 2 -4
v 2 2 -4
v 3 2 -4
v 4 2 -4
v 5 2 -4
v 6 2 -4
v -6 2 -5
v -5 2 -5
v -4 2 -5
v -3 2 -5
v -2 2 -5
v 0 2 -5
v 1 2 -5
v 3 2 -5
v 4 2 -5
v 5 2 -5
v 6 2 -5
v -6 2 -6
v -5 2 -6
v -3 2 -6
v -2 2 -6
v 0 2 -6
v 1 2 -6
v 3 2 -6
v 4 2 -6
v 5 2 -6
v 6 2 -6

# faces
f 3/2/1 2/2/1 1/2/1
f 4/2/1 2/2/1 3/2/1
f 5/2/1 2/2/1 4/2/1
f 6/2/1 2/2/1 5/2/1
f 7/2/1 2/2/1 6/2/1
f 8/2/1 2/2/1 7/2/1
f 9/2/1 2/2/1 8/2/1
f 10/2/1 2/2/1 9/2/1
f 11/2/1 2/2/1 10/2/1
f 12/2/1 2/2/1 11/2/1
f 13/2/1 2/2/1 12/2/1
f 14/4/1 5/4/1 4/4/1
f 15/4/1 5/4/1 14/4/1
f 16/4/1 7/4/1 6/4/1
f 17/4/1 7/4/1 16/4/1
f 18/4/1 9/4/1 8/4/1
f 19/4/1 9/4/1 18/4/1
f 20/4/1 11/4/1 10/4/1
f 21/4/1 11/4/1 20/4/1
f 22/4/1 13/4/1 12/4/1
f 23/4/1 13/4/1 22/4/1
f 35/4/1 25/4/1 24/4/1
f 36/4/1 25/4/1 35/4/1
f 37/5/1 27/5/1 26/5/1
f 38/4/1 28/4/1 27/4/1
f 38/5/1 27/5/1 37/5/1
f 39/4/1 28/4/1 38/4/1
f 40/4/1 30/4/1 29/4/1
f 41/4/1 30/4/1 40/4/1
f 42/4/1 32/4/1 31/4/1
f 43/4/1 32/4/1 42/4/1
f 44/5/1 34/5/1 33/5/1
f 45/5/1 34/5/1 44/5/1
f 50/4/1 47/4/1 46/4/1
f 51/4/1 47/4/1 50/4/1
f 52/5/1 49/5/1 48/5/1
f 53/5/1 49/5/1 52/5/1
f 56/4/1 55/4/1 54/4/1
f 57/4/1 55/4/1 56/4/1
f 60/4/1 59/4/1 58/4/1
f 61/4/1 59/4/1 60/4/1
f 64/4/1 63/4/1 62/4/1
f 65/4/1 63/4/1 64/4/1
f 68/4/1 67/4/1 66/4/1
f 69/4/1 67/4/1 68/4/1
f 72/4/1 71/4/1 70/4/1
f 73/4/1 71/4/1 72/4/1
f 74/4/2 75/4/2 76/4/2
f 76/4/2 75/4/2 77/4/2
f 78/4/2 79/4/2 80/4/2
f 80/4/2 79/4/2 81/4/2
f 82/4/2 83/4/2 86/4/2
f 86/4/2 83/4/2 87/4/2
f 84/5/2 85/5/2 88/5/2
f 88/5/2 85/5/2 89/5/2
f 90/4/2 91/4/2 92/4/2
f 92/4/2 91/4/2 93/4/2
f 94/4/2 95/4/2 96/4/2
f 96/4/2 95/4/2 97/4/2
f 98/4/2 99/4/2 100/4/2
f 100/4/2 99/4/2 101/4/2
f 102/4/2 103/4/2 113/4/2
f 113/4/2 103/4/2 114/4/2
f 104/5/2 105/5/2 115/5/2
f 105/4/2 106/4/2 116/4/2
f 115/5/2 105/5/2 116/5/2
f 116/4/2 106/4/2 117/4/2
f 107/5/2 108/5/2 118/5/2
f 118/5/2 108/5/2 119/5/2
f 109/4/2 110/4/2 120/4/2
f 120/4/2 110/4/2 121/4/2
f 111/4/2 112/4/2 122/4/2
f 122/4/2 112/4/2 123/4/2
f 124/2/2 125/2/2 126/2/2
f 126/2/2 125/2/2 127/2/2
f 127/2/2 125/2/2 128/2/2
f 128/2/2 125/2/2 129/2/2
f 129/2/2 125/2/2 130/2/2
f 130/2/2 125/2/2 131/2/2
f 131/2/2 125/2/2 132/2/2
f 132/2/2 125/2/2 133/2/2
f 133/2/2 125/2/2 134/2/2
f 134/2/2 125/2/2 135/2/2
f 135/2/2 125/2/2 136/2/2
f 127/4/2 128/4/2 137/4/2
f 137/4/2 128/4/2 138/4/2
f 129/4/2 130/4/2 139/4/2
f 139/4/2 130/4/2 140/4/2
f 131/5/2 132/5/2 141/5/2
f 141/5/2 132/5/2 142/5/2
f 133/4/2 134/4/2 143/4/2
f 143/4/2 134/4/2 144/4/2
f 135/4/2 136/4/2 145/4/2
f 145/4/2 136/4/2 146/4/2
f 149/2/3 148/2/3 147/2/3
f 151/2/3 149/2/3 147/2/3
f 152/4/3 150/4/3 149/4/3
f 152/2/3 149/2/3 151/2/3
f 153/4/3 150/4/3 152/4/3
f 154/3/3 152/3/3 151/3/3
f 155/3/3 152/3/3 154/3/3
f 157/2/3 155/2/3 154/2/3
f 158/4/3 156/4/3 155/4/3
f 158/2/3 155/2/3 157/2/3
f 159/4/3 156/4/3 158/4/3
f 160/3/3 158/3/3 157/3/3
f 161/3/3 158/3/3 160/3/3
f 162/2/3 161/2/3 160/2/3
f 163/2/3 161/2/3 162/2/3
f 164/3/3 163/3/3 162/3/3
f 165/3/3 163/3/3 164/3/3
f 167/2/3 165/2/3 164/2/3
f 168/4/3 166/4/3 165/4/3
f 168/2/3 165/2/3 167/2/3
f 169/4/3 166/4/3 168/4/3
f 170/3/3 168/3/3 167/3/3
f 171/3/3 168/3/3 170/3/3
f 172/2/3 171/2/3 170/2/3
f 174/2/3 172/2/3 170/2/3
f 174/4/3 173/4/3 172/4/3
f 175/4/3 173/4/3 174/4/3
f 176/2/3 174/2/3 170/2/3
f 177/2/3 174/2/3 176/2/3
f 180/4/3 179/4/3 178/4/3
f 181/4/3 179/4/3 180/4/3
f 184/4/3 183/4/3 182/4/3
f 185/4/3 183/4/3 184/4/3
f 188/4/3 187/4/3 186/4/3
f 189/4/3 187/4/3 188/4/3
f 190/4/3 187/4/3 189/4/3
f 191/4/3 187/4/3 190/4/3
f 194/4/3 193/4/3 192/4/3
f 195/4/3 193/4/3 194/4/3
f 196/4/3 193/4/3 195/4/3
f 199/4/3 198/4/3 197/4/3
f 200/4/3 198/4/3 199/4/3
f 203/4/3 202/4/3 201/4/3
f 204/4/3 202/4/3 203/4/3
f 207/4/3 206/4/3 205/4/3
f 208/4/3 206/4/3 207/4/3
f 211/5/3 210/5/3 209/5/3
f 212/5/3 210/5/3 211/5/3
f 215/4/3 214/4/3 213/4/3
f 216/4/3 214/4/3 215/4/3
f 219/4/3 218/4/3 217/4/3
f 220/4/3 218/4/3 219/4/3
f 223/4/3 222/4/3 221/4/3
f 224/4/3 222/4/3 223/4/3
f 227/4/3 226/4/3 225/4/3
f 228/4/3 226/4/3 227/4/3
f 231/4/3 230/4/3 229/4/3
f 232/4/3 230/4/3 231/4/3
f 233/4/4 234/4/4 235/4/4
f 235/4/4 234/4/4 236/4/4
f 237/4/4 238/4/4 239/4/4
f 239/4/4 238/4/4 240/4/4
f 241/4/4 242/4/4 243/4/4
f 243/4/4 242/4/4 244/4/4
f 245/4/4 246/4/4 247/4/4
f 247/4/4 246/4/4 248/4/4
f 249/5/4 250/5/4 251/5/4
f 251/5/4 250/5/4 252/5/4
f 253/4/4 254/4/4 255/4/4
f 255/4/4 254/4/4 256/4/4
f 257/4/4 258/4/4 259/4/4
f 259/4/4 258/4/4 260/4/4
f 261/4/4 262/4/4 263/4/4
f 263/4/4 262/4/4 264/4/4
f 265/5/4 266/5/4 267/5/4
f 267/5/4 266/5/4 268/5/4
f 267/4/4 268/4/4 269/4/4
f 269/4/4 268/4/4 270/4/4
f 271/4/4 272/4/4 273/4/4
f 273/4/4 272/4/4 274/4/4
f 274/4/4 272/4/4 275/4/4
f 276/4/4 277/4/4 278/4/4
f 278/4/4 277/4/4 279/4/4
f 279/4/4 277/4/4 280/4/4
f 281/4/4 282/4/4 283/4/4
f 283/4/4 282/4/4 284/4/4
f 285/2/4 286/2/4 288/2/4
f 286/4/4 287/4/4 288/4/4
f 288/4/4 287/4/4 289/4/4
f 285/2/4 288/2/4 290/2/4
f 290/2/4 288/2/4 291/2/4
f 290/3/4 291/3/4 292/3/4
f 292/3/4 291/3/4 293/3/4
f 292/2/4 293/2/4 295/2/4
f 293/5/4 294/5/4 296/5/4
f 295/2/4 293/2/4 296/2/4
f 296/5/4 294/5/4 297/5/4
f 295/3/4 296/3/4 298/3/4
f 298/3/4 296/3/4 299/3/4
f 298/2/4 299/2/4 300/2/4
f 298/2/4 300/2/4 302/2/4
f 300/4/4 301/4/4 302/4/4
f 302/4/4 301/4/4 303/4/4
f 298/2/4 302/2/4 304/2/4
f 304/2/4 302/2/4 305/2/4
f 304/3/4 305/3/4 306/3/4
f 306/3/4 305/3/4 307/3/4
f 306/2/4 307/2/4 309/2/4
f 307/4/4 308/4/4 309/4/4
f 309/4/4 308/4/4 310/4/4
f 306/2/4 309/2/4 311/2/4
f 306/2/4 311/2/4 313/2/4
f 311/4/4 312/4/4 314/4/4
f 313/2/4 311/2/4 314/2/4
f 314/4/4 312/4/4 315/4/4
f 326/2/5 319/2/5 318/2/5
f 326/3/5 320/3/5 319/3/5
f 327/2/5 321/2/5 320/2/5
f 327/3/5 320/3/5 326/3/5
f 328/3/5 322/3/5 321/3/5
f 328/2/5 321/2/5 327/2/5
f 329/2/5 323/2/5 322/2/5
f 329/3/5 322/3/5 328/3/5
f 330/3/5 324/3/5 323/3/5
f 330/2/5 323/2/5 329/2/5
f 331/2/5 325/2/5 324/2/5
f 331/3/5 324/3/5 330/3/5
f 332/2/5 317/2/5 316/2/5
f 332/3/5 318/3/5 317/3/5
f 333/2/5 331/2/5 330/2/5
f 333/3/5 318/3/5 332/3/5
f 333/2/5 330/2/5 329/2/5
f 333/2/5 328/2/5 327/2/5
f 333/2/5 327/2/5 326/2/5
f 333/2/5 326/2/5 318/2/5
f 333/2/5 329/2/5 328/2/5
f 334/2/5 332/2/5 316/2/5
f 334/2/5 333/2/5 332/2/5
f 335/2/5 331/2/5 333/2/5
f 335/2/5 333/2/5 334/2/5
f 336/2/5 334/2/5 316/2/5
f 336/3/5 335/3/5 334/3/5
f 337/2/5 331/2/5 335/2/5
f 337/3/5 335/3/5 336/3/5
f 338/2/5 336/2/5 316/2/5
f 338/2/5 337/2/5 336/2/5
f 339/2/5 331/2/5 337/2/5
f 339/2/5 337/2/5 338/2/5
f 340/2/5 338/2/5 316/2/5
f 340/3/5 339/3/5 338/3/5
f 341/2/5 331/2/5 339/2/5
f 341/3/5 339/3/5 340/3/5
f 342/2/5 340/2/5 316/2/5
f 342/2/5 341/2/5 340/2/5
f 343/2/5 331/2/5 341/2/5
f 343/2/5 341/2/5 342/2/5
f 344/2/5 331/2/5 343/2/5
f 345/2/5 331/2/5 344/2/5
f 346/2/5 331/2/5 345/2/5
f 347/2/5 325/2/5 331/2/5
f 347/2/5 331/2/5 346/2/5
f 348/2/5 342/2/5 316/2/5
f 349/3/5 343/3/5 342/3/5
f 349/2/5 342/2/5 348/2/5
f 350/2/5 344/2/5 343/2/5
f 350/3/5 343/3/5 349/3/5
f 351/3/5 345/3/5 344/3/5
f 351/2/5 344/2/5 350/2/5
f 352/2/5 346/2/5 345/2/5
f 352/3/5 345/3/5 351/3/5
f 353/3/5 347/3/5 346/3/5
f 353/2/5 346/2/5 352/2/5
f 354/2/5 325/2/5 347/2/5
f 354/3/5 347/3/5 353/3/5
f 355/2/5 325/2/5 354/2/5
f 356/2/6 357/2/6 369/2/6
f 369/2/6 357/2/6 370/2/6
f 358/3/6 359/3/6 371/3/6
f 371/3/6 359/3/6 372/3/6
f 360/3/6 361/3/6 373/3/6
f 361/2/6 362/2/6 374/2/6
f 373/3/6 361/3/6 374/3/6
f 362/3/6 363/3/6 375/3/6
f 374/2/6 362/2/6 375/2/6
f 375/3/6 363/3/6 376/3/6
f 364/3/6 365/3/6 377/3/6
f 365/2/6 366/2/6 378/2/6
f 377/3/6 365/3/6 378/3/6
f 378/2/6 366/2/6 379/2/6
f 367/2/6 368/2/6 380/2/6
f 380/2/6 368/2/6 381/2/6
f 382/2/6 383/2/6 386/2/6
f 384/2/6 385/2/6 387/2/6
f 382/2/6 386/2/6 388/2/6
f 388/2/6 386/2/6 389/2/6
f 387/2/6 385/2/6 390/2/6
f 390/2/6 385/2/6 391/2/6
f 394/2/6 395/2/6 396/2/6
f 396/2/6 395/2/6 397/2/6
f 392/2/6 393/2/6 398/2/6
f 398/2/6 393/2/6 399/2/6
f 402/2/6 403/2/6 404/2/6
f 404/2/6 403/2/6 405/2/6
f 400/2/6 401/2/6 406/2/6
f 406/2/6 401/2/6 407/2/6
f 408/2/6 409/2/6 412/2/6
f 412/2/6 409/2/6 413/2/6
f 410/2/6 411/2/6 423/2/6
f 423/2/6 411/2/6 424/2/6
f 413/2/6 414/2/6 425/2/6
f 414/3/6 415/3/6 426/3/6
f 425/2/6 414/2/6 426/2/6
f 426/3/6 415/3/6 427/3/6
f 416/3/6 417/3/6 428/3/6
f 417/2/6 418/2/6 429/2/6
f 428/3/6 417/3/6 429/3/6
f 429/2/6 418/2/6 430/2/6
f 419/2/6 420/2/6 431/2/6
f 420/3/6 421/3/6 432/3/6
f 431/2/6 420/2/6 432/2/6
f 432/3/6 421/3/6 433/3/6
f 422/2/6 423/2/6 434/2/6
f 434/2/6 423/2/6 435/2/6
f 436/4/6 437/4/6 445/4/6
f 445/4/6 437/4/6 446/4/6
f 438/4/6 439/4/6 447/4/6
f 447/4/6 439/4/6 448/4/6
f 440/4/6 441/4/6 449/4/6
f 449/4/6 441/4/6 450/4/6
f 442/4/6 443/4/6 451/4/6
f 451/4/6 443/4/6 452/4/6
f 449/4/6 450/4/6 454/4/6
f 445/4/6 446/4/6 454/4/6
f 447/4/6 448/4/6 454/4/6
f 450/4/6 451/4/6 454/4/6
f 444/4/6 445/4/6 454/4/6
f 448/4/6 449/4/6 454/4/6
f 446/4/6 447/4/6 454/4/6
f 454/4/6 451/4/6 455/4/6
f 455/4/6 451/4/6 456/4/6
f 456/4/6 451/4/6 457/4/6
f 457/4/6 451/4/6 458/4/6
f 452/4/6 453/4/6 459/4/6
f 451/5/6 452/5/6 459/5/6
f 459/4/6 453/4/6 460/4/6
f 455/5/6 456/5/6 461/5/6
f 461/5/6 456/5/6 462/5/6
f 457/1/6 458/1/6 463/1/6
f 456/4/6 457/4/6 463/4/6
f 458/4/6 451/4/6 464/4/6
f 463/1/6 458/1/6 464/1/6
f 464/4/6 451/4/6 465/4/6
f 465/4/6 451/4/6 466/4/6
f 466/4/6 451/4/6 467/4/6
f 451/5/6 459/5/6 468/5/6
f 467/4/6 451/4/6 468/4/6
f 468/5/6 459/5/6 469/5/6
f 461/4/6 462/4/6 471/4/6
f 462/5/6 456/5/6 472/5/6
f 471/4/6 462/4/6 472/4/6
f 456/4/6 463/4/6 473/4/6
f 472/5/6 456/5/6 473/5/6
f 463/4/6 464/4/6 473/4/6
f 464/4/6 465/4/6 473/4/6
f 473/4/6 465/4/6 474/4/6
f 465/5/6 466/5/6 475/5/6
f 474/4/6 465/4/6 475/4/6
f 466/4/6 467/4/6 476/4/6
f 475/5/6 466/5/6 476/5/6
f 467/1/6 468/1/6 477/1/6
f 476/4/6 467/4/6 477/4/6
f 468/4/6 469/4/6 478/4/6
f 477/1/6 468/1/6 478/1/6
f 478/4/6 469/4/6 479/4/6
f 471/4/6 472/4/6 481/4/6
f 470/4/6 471/4/6 481/4/6
f 472/4/6 473/4/6 481/4/6
f 481/4/6 473/4/6 482/4/6
f 473/5/6 474/5/6 483/5/6
f 482/4/6 473/4/6 483/4/6
f 474/4/6 475/4/6 484/4/6
f 483/5/6 474/5/6 484/5/6
f 476/4/6 477/4/6 484/4/6
f 475/4/6 476/4/6 484/4/6
f 477/5/6 478/5/6 485/5/6
f 484/4/6 477/4/6 485/4/6
f 479/4/6 480/4/6 486/4/6
f 485/5/6 478/5/6 486/5/6
f 478/4/6 479/4/6 486/4/6
f 486/4/6 480/4/6 487/4/6
f 487/4/6 480/4/6 488/4/6
f 484/4/6 485/4/6 489/4/6
f 483/4/6 484/4/6 489/4/6
f 482/4/6 483/4/6 489/4/6
f 485/4/6 486/4/6 489/4/6
f 489/4/6 486/4/6 490/4/6
f 490/4/6 486/4/6 491/4/6
f 491/4/6 486/4/6 492/4/6
f 492/4/6 486/4/6 493/4/6
f 486/5/6 487/5/6 494/5/6
f 493/4/6 486/4/6 494/4/6
f 494/5/6 487/5/6 495/5/6
f 482/4/6 489/4/6 498/4/6
f 489/1/6 490/1/6 499/1/6
f 498/4/6 489/4/6 499/4/6
f 490/4/6 491/4/6 500/4/6
f 499/1/6 490/1/6 500/1/6
f 491/5/6 492/5/6 501/5/6
f 500/4/6 491/4/6 501/4/6
f 501/5/6 492/5/6 502/5/6
f 492/1/6 493/1/6 503/1/6
f 502/5/6 492/5/6 503/5/6
f 493/4/6 494/4/6 504/4/6
f 503/1/6 493/1/6 504/1/6
f 494/4/6 495/4/6 504/4/6
f 495/5/6 496/5/6 505/5/6
f 504/4/6 495/4/6 505/4/6
f 505/5/6 496/5/6 506/5/6
f 497/4/6 498/4/6 507/4/6
f 498/5/6 499/5/6 508/5/6
f 507/4/6 498/4/6 508/4/6
f 499/5/6 500/5/6 508/5/6
f 501/4/6 502/4/6 509/4/6
f 508/5/6 500/5/6 509/5/6
f 500/4/6 501/4/6 509/4/6
f 502/5/6 503/5/6 510/5/6
f 509/4/6 502/4/6 510/4/6
f 503/4/6 504/4/6 511/4/6
f 510/5/6 503/5/6 511/5/6
f 504/4/6 505/4/6 511/4/6
f 509/4/6 510/4/6 513/4/6
f 510/4/6 511/4/6 513/4/6
f 508/4/6 509/4/6 513/4/6
f 513/4/6 511/4/6 514/4/6
f 514/4/6 511/4/6 515/4/6
f 515/4/6 511/4/6 516/4/6
f 511/4/6 505/4/6 517/4/6
f 516/4/6 511/4/6 517/4/6
f 517/4/6 505/4/6 518/4/6
f 512/4/6 513/4/6 520/4/6
f 513/4/6 514/4/6 520/4/6
f 520/4/6 514/4/6 521/4/6
f 521/4/6 514/4/6 522/4/6
f 514/1/6 515/1/6 523/1/6
f 522/4/6 514/4/6 523/4/6
f 515/4/6 516/4/6 524/4/6
f 523/1/6 515/1/6 524/1/6
f 516/5/6 517/5/6 525/5/6
f 524/4/6 516/4/6 525/4/6
f 518/4/6 519/4/6 526/4/6
f 525/5/6 517/5/6 526/5/6
f 517/4/6 518/4/6 526/4/6
f 526/4/6 519/4/6 527/4/6
f 527/4/6 519/4/6 528/4/6
f 528/4/6 519/4/6 529/4/6
f 529/4/6 519/4/6 530/4/6
f 521/5/6 522/5/6 532/5/6
f 522/4/6 523/4/6 533/4/6
f 524/4/6 525/4/6 533/4/6
f 532/5/6 522/5/6 533/5/6
f 523/4/6 524/4/6 533/4/6
f 525/4/6 526/4/6 533/4/6
f 526/4/6 527/4/6 533/4/6
f 533/4/6 527/4/6 534/4/6
f 534/4/6 527/4/6 535/4/6
f 535/4/6 527/4/6 536/4/6
f 536/4/6 527/4/6 537/4/6
f 527/5/6 528/5/6 538/5/6
f 537/4/6 527/4/6 538/4/6
f 528/4/6 529/4/6 539/4/6
f 538/5/6 528/5/6 539/5/6
f 539/4/6 529/4/6 540/4/6
f 531/4/6 532/4/6 542/4/6
f 542/4/6 532/4/6 543/4/6
f 534/5/6 535/5/6 544/5/6
f 544/5/6 535/5/6 545/5/6
f 536/4/6 537/4/6 546/4/6
f 546/4/6 537/4/6 547/4/6
f 538/4/6 539/4/6 548/4/6
f 548/4/6 539/4/6 549/4/6
f 540/4/6 541/4/6 550/4/6
f 550/4/6 541/4/6 551/4/6
