# MagicaVoxel @ Ephtracy

# group
g win

# material
mtllib win.mtl
usemtl palette

# normals
vn -1 0 0
vn 1 0 0
vn 0 0 1
vn 0 0 -1
vn 0 -1 0
vn 0 1 0

# texcoords
vt 0.607422 0.5
vt 0.615234 0.5

# verts
v -18 1 20
v -18 1 19
v -18 1 18
v -18 1 13
v -18 1 12
v -18 1 11
v -18 2 20
v -18 2 19
v -18 2 18
v -18 2 13
v -18 2 12
v -18 2 11
v -16 0 -11
v -16 0 -16
v -16 0 -17
v -16 0 -18
v -16 0 -19
v -16 0 -22
v -16 0 -26
v -16 0 -27
v -16 0 -28
v -16 0 -30
v -16 0 -31
v -16 0 -32
v -16 1 10
v -16 1 9
v -16 1 8
v -16 1 7
v -16 1 4
v -16 1 1
v -16 1 -0
v -16 1 -1
v -16 1 -2
v -16 1 -5
v -16 1 -8
v -16 1 -9
v -16 1 -10
v -16 1 -11
v -16 1 -16
v -16 1 -17
v -16 1 -18
v -16 1 -19
v -16 1 -22
v -16 1 -26
v -16 1 -27
v -16 1 -28
v -16 1 -30
v -16 1 -31
v -16 1 -32
v -16 2 10
v -16 2 9
v -16 2 8
v -16 2 7
v -16 2 4
v -16 2 1
v -16 2 -0
v -16 2 -1
v -16 2 -2
v -16 2 -5
v -16 2 -8
v -16 2 -9
v -16 2 -10
v -15 0 -22
v -15 0 -23
v -15 1 4
v -15 1 3
v -15 1 -5
v -15 1 -6
v -15 1 -22
v -15 1 -23
v -15 2 4
v -15 2 3
v -15 2 -5
v -15 2 -6
v -14 0 -13
v -14 0 -16
v -14 0 -17
v -14 1 3
v -14 1 2
v -14 1 -6
v -14 1 -7
v -14 1 -13
v -14 1 -16
v -14 1 -17
v -14 2 3
v -14 2 2
v -14 2 -6
v -14 2 -7
v -13 0 -20
v -13 0 -22
v -13 1 16
v -13 1 15
v -13 1 2
v -13 1 1
v -13 1 -7
v -13 1 -8
v -13 1 -20
v -13 1 -22
v -13 2 16
v -13 2 15
v -13 2 2
v -13 2 1
v -13 2 -7
v -13 2 -8
v -12 0 -22
v -12 0 -23
v -12 1 18
v -12 1 17
v -12 1 16
v -12 1 15
v -12 1 14
v -12 1 13
v -12 1 -22
v -12 1 -23
v -12 2 18
v -12 2 17
v -12 2 16
v -12 2 15
v -12 2 14
v -12 2 13
v -11 0 -13
v -11 0 -16
v -11 0 -17
v -11 0 -23
v -11 0 -24
v -11 0 -26
v -11 0 -27
v -11 0 -28
v -11 0 -30
v -11 0 -31
v -11 0 -32
v -11 1 -13
v -11 1 -16
v -11 1 -17
v -11 1 -23
v -11 1 -24
v -11 1 -26
v -11 1 -27
v -11 1 -28
v -11 1 -30
v -11 1 -31
v -11 1 -32
v -15 0 -13
v -15 0 -16
v -15 0 -17
v -15 0 -20
v -15 0 -22
v -15 1 5
v -15 1 4
v -15 1 -4
v -15 1 -5
v -15 1 -13
v -15 1 -16
v -15 1 -17
v -15 1 -20
v -15 1 -22
v -15 2 5
v -15 2 4
v -15 2 -4
v -15 2 -5
v -14 1 4
v -14 1 3
v -14 1 -5
v -14 1 -6
v -14 2 4
v -14 2 3
v -14 2 -5
v -14 2 -6
v -13 0 -22
v -13 0 -23
v -13 1 20
v -13 1 19
v -13 1 12
v -13 1 11
v -13 1 3
v -13 1 2
v -13 1 -6
v -13 1 -7
v -13 1 -22
v -13 1 -23
v -13 2 20
v -13 2 19
v -13 2 12
v -13 2 11
v -13 2 3
v -13 2 2
v -13 2 -6
v -13 2 -7
v -12 0 -13
v -12 0 -17
v -12 0 -20
v -12 0 -22
v -12 0 -26
v -12 0 -27
v -12 0 -28
v -12 0 -30
v -12 0 -31
v -12 0 -32
v -12 1 19
v -12 1 18
v -12 1 16
v -12 1 15
v -12 1 13
v -12 1 12
v -12 1 2
v -12 1 1
v -12 1 -7
v -12 1 -8
v -12 1 -13
v -12 1 -17
v -12 1 -20
v -12 1 -22
v -12 1 -26
v -12 1 -27
v -12 1 -28
v -12 1 -30
v -12 1 -31
v -12 1 -32
v -12 2 19
v -12 2 18
v -12 2 16
v -12 2 15
v -12 2 13
v -12 2 12
v -12 2 2
v -12 2 1
v -12 2 -7
v -12 2 -8
v -11 0 -22
v -11 0 -23
v -11 1 -22
v -11 1 -23
v -10 0 -11
v -10 0 -16
v -10 0 -17
v -10 0 -18
v -10 0 -19
v -10 0 -20
v -10 0 -23
v -10 0 -24
v -10 0 -26
v -10 0 -27
v -10 0 -28
v -10 0 -30
v -10 0 -31
v -10 0 -32
v -10 1 18
v -10 1 17
v -10 1 16
v -10 1 15
v -10 1 14
v -10 1 13
v -10 1 10
v -10 1 9
v -10 1 8
v -10 1 7
v -10 1 6
v -10 1 5
v -10 1 1
v -10 1 -0
v -10 1 -1
v -10 1 -2
v -10 1 -3
v -10 1 -4
v -10 1 -8
v -10 1 -9
v -10 1 -10
v -10 1 -11
v -10 1 -16
v -10 1 -17
v -10 1 -18
v -10 1 -19
v -10 1 -20
v -10 1 -23
v -10 1 -24
v -10 1 -26
v -10 1 -27
v -10 1 -28
v -10 1 -30
v -10 1 -31
v -10 1 -32
v -10 2 18
v -10 2 17
v -10 2 16
v -10 2 15
v -10 2 14
v -10 2 13
v -10 2 10
v -10 2 9
v -10 2 8
v -10 2 7
v -10 2 6
v -10 2 5
v -10 2 1
v -10 2 -0
v -10 2 -1
v -10 2 -2
v -10 2 -3
v -10 2 -4
v -10 2 -8
v -10 2 -9
v -10 2 -10
v -18 1 20
v -18 2 20
v -13 1 20
v -13 2 20
v -13 1 19
v -13 2 19
v -12 1 19
v -12 2 19
v -12 1 18
v -12 2 18
v -10 1 18
v -10 2 18
v -13 1 16
v -13 2 16
v -12 1 16
v -12 2 16
v -12 1 15
v -12 2 15
v -10 1 15
v -10 2 15
v -18 1 13
v -18 2 13
v -13 1 13
v -13 2 13
v -12 1 13
v -12 2 13
v -16 1 10
v -16 2 10
v -10 1 10
v -10 2 10
v -16 1 7
v -16 2 7
v -10 1 7
v -10 2 7
v -15 1 4
v -15 2 4
v -14 1 4
v -14 2 4
v -14 1 3
v -14 2 3
v -13 1 3
v -13 2 3
v -13 1 2
v -13 2 2
v -12 1 2
v -12 2 2
v -16 1 1
v -16 2 1
v -13 1 1
v -13 2 1
v -12 1 1
v -12 2 1
v -10 1 1
v -10 2 1
v -16 1 -2
v -16 2 -2
v -10 1 -2
v -10 2 -2
v -15 1 -5
v -15 2 -5
v -14 1 -5
v -14 2 -5
v -14 1 -6
v -14 2 -6
v -13 1 -6
v -13 2 -6
v -13 1 -7
v -13 2 -7
v -12 1 -7
v -12 2 -7
v -16 1 -8
v -16 2 -8
v -13 1 -8
v -13 2 -8
v -12 1 -8
v -12 2 -8
v -10 1 -8
v -10 2 -8
v -16 0 -11
v -16 1 -11
v -10 0 -11
v -10 1 -11
v -16 0 -18
v -16 1 -18
v -10 0 -18
v -10 1 -18
v -15 0 -22
v -15 1 -22
v -13 0 -22
v -13 1 -22
v -12 0 -22
v -12 1 -22
v -11 0 -22
v -11 1 -22
v -11 0 -23
v -11 1 -23
v -10 0 -23
v -10 1 -23
v -16 0 -26
v -16 1 -26
v -12 0 -26
v -12 1 -26
v -11 0 -26
v -11 1 -26
v -10 0 -26
v -10 1 -26
v -16 0 -30
v -16 1 -30
v -12 0 -30
v -12 1 -30
v -11 0 -30
v -11 1 -30
v -10 0 -30
v -10 1 -30
v -18 1 18
v -18 2 18
v -12 1 18
v -12 2 18
v -12 1 16
v -12 2 16
v -10 1 16
v -10 2 16
v -13 1 15
v -13 2 15
v -12 1 15
v -12 2 15
v -12 1 13
v -12 2 13
v -10 1 13
v -10 2 13
v -13 1 12
v -13 2 12
v -12 1 12
v -12 2 12
v -18 1 11
v -18 2 11
v -13 1 11
v -13 2 11
v -16 1 8
v -16 2 8
v -10 1 8
v -10 2 8
v -15 1 5
v -15 2 5
v -10 1 5
v -10 2 5
v -16 1 4
v -16 2 4
v -15 1 4
v -15 2 4
v -15 1 3
v -15 2 3
v -14 1 3
v -14 2 3
v -14 1 2
v -14 2 2
v -13 1 2
v -13 2 2
v -16 1 -1
v -16 2 -1
v -10 1 -1
v -10 2 -1
v -15 1 -4
v -15 2 -4
v -10 1 -4
v -10 2 -4
v -16 1 -5
v -16 2 -5
v -15 1 -5
v -15 2 -5
v -15 1 -6
v -15 2 -6
v -14 1 -6
v -14 2 -6
v -14 1 -7
v -14 2 -7
v -13 1 -7
v -13 2 -7
v -16 1 -10
v -16 2 -10
v -10 1 -10
v -10 2 -10
v -15 0 -13
v -15 1 -13
v -14 0 -13
v -14 1 -13
v -12 0 -13
v -12 1 -13
v -11 0 -13
v -11 1 -13
v -16 0 -17
v -16 1 -17
v -15 0 -17
v -15 1 -17
v -14 0 -17
v -14 1 -17
v -12 0 -17
v -12 1 -17
v -11 0 -17
v -11 1 -17
v -10 0 -17
v -10 1 -17
v -15 0 -20
v -15 1 -20
v -13 0 -20
v -13 1 -20
v -12 0 -20
v -12 1 -20
v -10 0 -20
v -10 1 -20
v -16 0 -22
v -16 1 -22
v -15 0 -22
v -15 1 -22
v -13 0 -22
v -13 1 -22
v -12 0 -22
v -12 1 -22
v -15 0 -23
v -15 1 -23
v -13 0 -23
v -13 1 -23
v -12 0 -23
v -12 1 -23
v -11 0 -23
v -11 1 -23
v -11 0 -24
v -11 1 -24
v -10 0 -24
v -10 1 -24
v -16 0 -28
v -16 1 -28
v -12 0 -28
v -12 1 -28
v -11 0 -28
v -11 1 -28
v -10 0 -28
v -10 1 -28
v -16 0 -32
v -16 1 -32
v -12 0 -32
v -12 1 -32
v -11 0 -32
v -11 1 -32
v -10 0 -32
v -10 1 -32
v -16 0 -11
v -10 0 -11
v -15 0 -12
v -14 0 -12
v -13 0 -12
v -11 0 -12
v -15 0 -13
v -14 0 -13
v -12 0 -13
v -11 0 -13
v -16 0 -16
v -15 0 -16
v -14 0 -16
v -13 0 -16
v -11 0 -16
v -10 0 -16
v -16 0 -17
v -15 0 -17
v -14 0 -17
v -12 0 -17
v -11 0 -17
v -10 0 -17
v -16 0 -18
v -10 0 -18
v -16 0 -19
v -10 0 -19
v -15 0 -20
v -13 0 -20
v -12 0 -20
v -10 0 -20
v -16 0 -22
v -15 0 -22
v -13 0 -22
v -12 0 -22
v -11 0 -22
v -15 0 -23
v -13 0 -23
v -12 0 -23
v -11 0 -23
v -10 0 -23
v -11 0 -24
v -10 0 -24
v -16 0 -26
v -12 0 -26
v -11 0 -26
v -10 0 -26
v -16 0 -27
v -12 0 -27
v -11 0 -27
v -10 0 -27
v -16 0 -28
v -12 0 -28
v -11 0 -28
v -10 0 -28
v -16 0 -30
v -12 0 -30
v -11 0 -30
v -10 0 -30
v -16 0 -31
v -12 0 -31
v -11 0 -31
v -10 0 -31
v -16 0 -32
v -12 0 -32
v -11 0 -32
v -10 0 -32
v -18 1 20
v -13 1 20
v -18 1 19
v -13 1 19
v -12 1 19
v -18 1 18
v -12 1 18
v -10 1 18
v -12 1 17
v -10 1 17
v -13 1 16
v -12 1 16
v -10 1 16
v -13 1 15
v -12 1 15
v -10 1 15
v -12 1 14
v -10 1 14
v -18 1 13
v -13 1 13
v -12 1 13
v -10 1 13
v -18 1 12
v -13 1 12
v -12 1 12
v -18 1 11
v -13 1 11
v -16 1 10
v -10 1 10
v -16 1 9
v -10 1 9
v -16 1 8
v -10 1 8
v -16 1 7
v -10 1 7
v -15 1 6
v -10 1 6
v -15 1 5
v -10 1 5
v -16 1 4
v -15 1 4
v -14 1 4
v -15 1 3
v -14 1 3
v -13 1 3
v -14 1 2
v -13 1 2
v -12 1 2
v -16 1 1
v -13 1 1
v -12 1 1
v -10 1 1
v -16 1 -0
v -10 1 -0
v -16 1 -1
v -10 1 -1
v -16 1 -2
v -10 1 -2
v -15 1 -3
v -10 1 -3
v -15 1 -4
v -10 1 -4
v -16 1 -5
v -15 1 -5
v -14 1 -5
v -15 1 -6
v -14 1 -6
v -13 1 -6
v -14 1 -7
v -13 1 -7
v -12 1 -7
v -16 1 -8
v -13 1 -8
v -12 1 -8
v -10 1 -8
v -16 1 -9
v -10 1 -9
v -16 1 -10
v -10 1 -10
v -16 1 -11
v -10 1 -11
v -15 1 -12
v -14 1 -12
v -13 1 -12
v -11 1 -12
v -15 1 -13
v -14 1 -13
v -12 1 -13
v -11 1 -13
v -16 1 -16
v -15 1 -16
v -14 1 -16
v -13 1 -16
v -11 1 -16
v -10 1 -16
v -16 1 -17
v -15 1 -17
v -14 1 -17
v -12 1 -17
v -11 1 -17
v -10 1 -17
v -16 1 -18
v -10 1 -18
v -16 1 -19
v -10 1 -19
v -15 1 -20
v -13 1 -20
v -12 1 -20
v -10 1 -20
v -16 1 -22
v -15 1 -22
v -13 1 -22
v -12 1 -22
v -11 1 -22
v -15 1 -23
v -13 1 -23
v -12 1 -23
v -11 1 -23
v -10 1 -23
v -11 1 -24
v -10 1 -24
v -16 1 -26
v -12 1 -26
v -11 1 -26
v -10 1 -26
v -16 1 -27
v -12 1 -27
v -11 1 -27
v -10 1 -27
v -16 1 -28
v -12 1 -28
v -11 1 -28
v -10 1 -28
v -16 1 -30
v -12 1 -30
v -11 1 -30
v -10 1 -30
v -16 1 -31
v -12 1 -31
v -11 1 -31
v -10 1 -31
v -16 1 -32
v -12 1 -32
v -11 1 -32
v -10 1 -32
v -18 2 20
v -13 2 20
v -18 2 19
v -13 2 19
v -12 2 19
v -18 2 18
v -12 2 18
v -10 2 18
v -12 2 17
v -10 2 17
v -13 2 16
v -12 2 16
v -10 2 16
v -13 2 15
v -12 2 15
v -10 2 15
v -12 2 14
v -10 2 14
v -18 2 13
v -13 2 13
v -12 2 13
v -10 2 13
v -18 2 12
v -13 2 12
v -12 2 12
v -18 2 11
v -13 2 11
v -16 2 10
v -10 2 10
v -16 2 9
v -10 2 9
v -16 2 8
v -10 2 8
v -16 2 7
v -10 2 7
v -15 2 6
v -10 2 6
v -15 2 5
v -10 2 5
v -16 2 4
v -15 2 4
v -14 2 4
v -15 2 3
v -14 2 3
v -13 2 3
v -14 2 2
v -13 2 2
v -12 2 2
v -16 2 1
v -13 2 1
v -12 2 1
v -10 2 1
v -16 2 -0
v -10 2 -0
v -16 2 -1
v -10 2 -1
v -16 2 -2
v -10 2 -2
v -15 2 -3
v -10 2 -3
v -15 2 -4
v -10 2 -4
v -16 2 -5
v -15 2 -5
v -14 2 -5
v -15 2 -6
v -14 2 -6
v -13 2 -6
v -14 2 -7
v -13 2 -7
v -12 2 -7
v -16 2 -8
v -13 2 -8
v -12 2 -8
v -10 2 -8
v -16 2 -9
v -10 2 -9
v -16 2 -10
v -10 2 -10

# faces
f 7/2/1 2/2/1 1/2/1
f 8/1/1 3/1/1 2/1/1
f 8/2/1 2/2/1 7/2/1
f 9/1/1 3/1/1 8/1/1
f 10/2/1 5/2/1 4/2/1
f 11/1/1 6/1/1 5/1/1
f 11/2/1 5/2/1 10/2/1
f 12/1/1 6/1/1 11/1/1
f 38/2/1 14/2/1 13/2/1
f 39/1/1 15/1/1 14/1/1
f 39/2/1 14/2/1 38/2/1
f 40/1/1 15/1/1 39/1/1
f 41/2/1 17/2/1 16/2/1
f 42/1/1 18/1/1 17/1/1
f 42/2/1 17/2/1 41/2/1
f 43/1/1 18/1/1 42/1/1
f 44/2/1 20/2/1 19/2/1
f 45/1/1 21/1/1 20/1/1
f 45/2/1 20/2/1 44/2/1
f 46/1/1 21/1/1 45/1/1
f 47/2/1 23/2/1 22/2/1
f 48/1/1 24/1/1 23/1/1
f 48/2/1 23/2/1 47/2/1
f 49/1/1 24/1/1 48/1/1
f 50/2/1 26/2/1 25/2/1
f 51/1/1 27/1/1 26/1/1
f 51/2/1 26/2/1 50/2/1
f 52/1/1 27/1/1 51/1/1
f 53/2/1 29/2/1 28/2/1
f 54/2/1 29/2/1 53/2/1
f 55/2/1 31/2/1 30/2/1
f 56/1/1 32/1/1 31/1/1
f 56/2/1 31/2/1 55/2/1
f 57/1/1 32/1/1 56/1/1
f 58/2/1 34/2/1 33/2/1
f 59/2/1 34/2/1 58/2/1
f 60/2/1 36/2/1 35/2/1
f 61/1/1 37/1/1 36/1/1
f 61/2/1 36/2/1 60/2/1
f 62/1/1 37/1/1 61/1/1
f 69/1/1 64/1/1 63/1/1
f 70/1/1 64/1/1 69/1/1
f 71/2/1 66/2/1 65/2/1
f 72/2/1 66/2/1 71/2/1
f 73/2/1 68/2/1 67/2/1
f 74/2/1 68/2/1 73/2/1
f 82/2/1 76/2/1 75/2/1
f 83/1/1 77/1/1 76/1/1
f 83/2/1 76/2/1 82/2/1
f 84/1/1 77/1/1 83/1/1
f 85/2/1 79/2/1 78/2/1
f 86/2/1 79/2/1 85/2/1
f 87/2/1 81/2/1 80/2/1
f 88/2/1 81/2/1 87/2/1
f 97/1/1 90/1/1 89/1/1
f 98/1/1 90/1/1 97/1/1
f 99/2/1 92/2/1 91/2/1
f 100/2/1 92/2/1 99/2/1
f 101/2/1 94/2/1 93/2/1
f 102/2/1 94/2/1 101/2/1
f 103/2/1 96/2/1 95/2/1
f 104/2/1 96/2/1 103/2/1
f 113/1/1 106/1/1 105/1/1
f 114/1/1 106/1/1 113/1/1
f 115/2/1 108/2/1 107/2/1
f 116/1/1 109/1/1 108/1/1
f 116/2/1 108/2/1 115/2/1
f 117/1/1 109/1/1 116/1/1
f 118/2/1 111/2/1 110/2/1
f 119/1/1 112/1/1 111/1/1
f 119/2/1 111/2/1 118/2/1
f 120/1/1 112/1/1 119/1/1
f 132/2/1 122/2/1 121/2/1
f 133/1/1 123/1/1 122/1/1
f 133/2/1 122/2/1 132/2/1
f 134/1/1 123/1/1 133/1/1
f 135/1/1 125/1/1 124/1/1
f 136/1/1 125/1/1 135/1/1
f 137/2/1 127/2/1 126/2/1
f 138/1/1 128/1/1 127/1/1
f 138/2/1 127/2/1 137/2/1
f 139/1/1 128/1/1 138/1/1
f 140/2/1 130/2/1 129/2/1
f 141/1/1 131/1/1 130/1/1
f 141/2/1 130/2/1 140/2/1
f 142/1/1 131/1/1 141/1/1
f 143/2/2 144/2/2 152/2/2
f 144/1/2 145/1/2 153/1/2
f 152/2/2 144/2/2 153/2/2
f 153/1/2 145/1/2 154/1/2
f 146/1/2 147/1/2 155/1/2
f 155/1/2 147/1/2 156/1/2
f 148/2/2 149/2/2 157/2/2
f 157/2/2 149/2/2 158/2/2
f 150/2/2 151/2/2 159/2/2
f 159/2/2 151/2/2 160/2/2
f 161/2/2 162/2/2 165/2/2
f 165/2/2 162/2/2 166/2/2
f 163/2/2 164/2/2 167/2/2
f 167/2/2 164/2/2 168/2/2
f 169/1/2 170/1/2 179/1/2
f 179/1/2 170/1/2 180/1/2
f 171/2/2 172/2/2 181/2/2
f 181/2/2 172/2/2 182/2/2
f 173/1/2 174/1/2 183/1/2
f 183/1/2 174/1/2 184/1/2
f 175/2/2 176/2/2 185/2/2
f 185/2/2 176/2/2 186/2/2
f 177/2/2 178/2/2 187/2/2
f 187/2/2 178/2/2 188/2/2
f 189/1/2 190/1/2 209/1/2
f 209/1/2 190/1/2 210/1/2
f 191/1/2 192/1/2 211/1/2
f 211/1/2 192/1/2 212/1/2
f 193/2/2 194/2/2 213/2/2
f 194/1/2 195/1/2 214/1/2
f 213/2/2 194/2/2 214/2/2
f 214/1/2 195/1/2 215/1/2
f 196/2/2 197/2/2 216/2/2
f 197/1/2 198/1/2 217/1/2
f 216/2/2 197/2/2 217/2/2
f 217/1/2 198/1/2 218/1/2
f 199/1/2 200/1/2 219/1/2
f 219/1/2 200/1/2 220/1/2
f 201/2/2 202/2/2 221/2/2
f 221/2/2 202/2/2 222/2/2
f 203/1/2 204/1/2 223/1/2
f 223/1/2 204/1/2 224/1/2
f 205/2/2 206/2/2 225/2/2
f 225/2/2 206/2/2 226/2/2
f 207/2/2 208/2/2 227/2/2
f 227/2/2 208/2/2 228/2/2
f 229/1/2 230/1/2 231/1/2
f 231/1/2 230/1/2 232/1/2
f 233/2/2 234/2/2 268/2/2
f 234/1/2 235/1/2 269/1/2
f 268/2/2 234/2/2 269/2/2
f 269/1/2 235/1/2 270/1/2
f 236/2/2 237/2/2 271/2/2
f 237/1/2 238/1/2 272/1/2
f 271/2/2 237/2/2 272/2/2
f 272/1/2 238/1/2 273/1/2
f 239/1/2 240/1/2 274/1/2
f 274/1/2 240/1/2 275/1/2
f 241/2/2 242/2/2 276/2/2
f 242/1/2 243/1/2 277/1/2
f 276/2/2 242/2/2 277/2/2
f 277/1/2 243/1/2 278/1/2
f 244/2/2 245/2/2 279/2/2
f 245/1/2 246/1/2 280/1/2
f 279/2/2 245/2/2 280/2/2
f 280/1/2 246/1/2 281/1/2
f 247/2/2 248/2/2 282/2/2
f 248/1/2 249/1/2 283/1/2
f 282/2/2 248/2/2 283/2/2
f 283/1/2 249/1/2 284/1/2
f 250/2/2 251/2/2 285/2/2
f 251/1/2 252/1/2 286/1/2
f 285/2/2 251/2/2 286/2/2
f 286/1/2 252/1/2 287/1/2
f 253/2/2 254/2/2 288/2/2
f 254/1/2 255/1/2 289/1/2
f 288/2/2 254/2/2 289/2/2
f 289/1/2 255/1/2 290/1/2
f 256/2/2 257/2/2 291/2/2
f 257/1/2 258/1/2 292/1/2
f 291/2/2 257/2/2 292/2/2
f 292/1/2 258/1/2 293/1/2
f 259/2/2 260/2/2 294/2/2
f 260/1/2 261/1/2 295/1/2
f 294/2/2 260/2/2 295/2/2
f 295/1/2 261/1/2 296/1/2
f 262/2/2 263/2/2 297/2/2
f 263/1/2 264/1/2 298/1/2
f 297/2/2 263/2/2 298/2/2
f 298/1/2 264/1/2 299/1/2
f 265/2/2 266/2/2 300/2/2
f 266/1/2 267/1/2 301/1/2
f 300/2/2 266/2/2 301/2/2
f 301/1/2 267/1/2 302/1/2
f 305/2/3 304/2/3 303/2/3
f 306/2/3 304/2/3 305/2/3
f 309/1/3 308/1/3 307/1/3
f 310/1/3 308/1/3 309/1/3
f 313/2/3 312/2/3 311/2/3
f 314/2/3 312/2/3 313/2/3
f 317/2/3 316/2/3 315/2/3
f 318/2/3 316/2/3 317/2/3
f 321/2/3 320/2/3 319/2/3
f 322/2/3 320/2/3 321/2/3
f 325/2/3 324/2/3 323/2/3
f 326/2/3 324/2/3 325/2/3
f 327/1/3 326/1/3 325/1/3
f 328/1/3 326/1/3 327/1/3
f 331/2/3 330/2/3 329/2/3
f 332/2/3 330/2/3 331/2/3
f 335/2/3 334/2/3 333/2/3
f 336/2/3 334/2/3 335/2/3
f 339/2/3 338/2/3 337/2/3
f 340/2/3 338/2/3 339/2/3
f 343/2/3 342/2/3 341/2/3
f 344/2/3 342/2/3 343/2/3
f 347/2/3 346/2/3 345/2/3
f 348/2/3 346/2/3 347/2/3
f 351/2/3 350/2/3 349/2/3
f 352/2/3 350/2/3 351/2/3
f 355/2/3 354/2/3 353/2/3
f 356/2/3 354/2/3 355/2/3
f 359/2/3 358/2/3 357/2/3
f 360/2/3 358/2/3 359/2/3
f 363/2/3 362/2/3 361/2/3
f 364/2/3 362/2/3 363/2/3
f 367/2/3 366/2/3 365/2/3
f 368/2/3 366/2/3 367/2/3
f 371/2/3 370/2/3 369/2/3
f 372/2/3 370/2/3 371/2/3
f 375/2/3 374/2/3 373/2/3
f 376/2/3 374/2/3 375/2/3
f 379/2/3 378/2/3 377/2/3
f 380/2/3 378/2/3 379/2/3
f 383/2/3 382/2/3 381/2/3
f 384/2/3 382/2/3 383/2/3
f 387/2/3 386/2/3 385/2/3
f 388/2/3 386/2/3 387/2/3
f 391/1/3 390/1/3 389/1/3
f 392/1/3 390/1/3 391/1/3
f 395/1/3 394/1/3 393/1/3
f 396/1/3 394/1/3 395/1/3
f 399/1/3 398/1/3 397/1/3
f 400/1/3 398/1/3 399/1/3
f 403/2/3 402/2/3 401/2/3
f 404/2/3 402/2/3 403/2/3
f 407/2/3 406/2/3 405/2/3
f 408/2/3 406/2/3 407/2/3
f 411/2/3 410/2/3 409/2/3
f 412/2/3 410/2/3 411/2/3
f 415/2/3 414/2/3 413/2/3
f 416/2/3 414/2/3 415/2/3
f 417/1/4 418/1/4 419/1/4
f 419/1/4 418/1/4 420/1/4
f 421/1/4 422/1/4 423/1/4
f 423/1/4 422/1/4 424/1/4
f 425/2/4 426/2/4 427/2/4
f 427/2/4 426/2/4 428/2/4
f 429/1/4 430/1/4 431/1/4
f 431/1/4 430/1/4 432/1/4
f 433/1/4 434/1/4 435/1/4
f 435/1/4 434/1/4 436/1/4
f 437/1/4 438/1/4 439/1/4
f 439/1/4 438/1/4 440/1/4
f 441/1/4 442/1/4 443/1/4
f 443/1/4 442/1/4 444/1/4
f 445/1/4 446/1/4 447/1/4
f 447/1/4 446/1/4 448/1/4
f 449/2/4 450/2/4 451/2/4
f 451/2/4 450/2/4 452/2/4
f 453/2/4 454/2/4 455/2/4
f 455/2/4 454/2/4 456/2/4
f 457/2/4 458/2/4 459/2/4
f 459/2/4 458/2/4 460/2/4
f 461/1/4 462/1/4 463/1/4
f 463/1/4 462/1/4 464/1/4
f 465/1/4 466/1/4 467/1/4
f 467/1/4 466/1/4 468/1/4
f 469/2/4 470/2/4 471/2/4
f 471/2/4 470/2/4 472/2/4
f 473/2/4 474/2/4 475/2/4
f 475/2/4 474/2/4 476/2/4
f 477/2/4 478/2/4 479/2/4
f 479/2/4 478/2/4 480/2/4
f 481/1/4 482/1/4 483/1/4
f 483/1/4 482/1/4 484/1/4
f 485/1/4 486/1/4 487/1/4
f 487/1/4 486/1/4 488/1/4
f 489/1/4 490/1/4 491/1/4
f 491/1/4 490/1/4 492/1/4
f 493/1/4 494/1/4 495/1/4
f 495/1/4 494/1/4 496/1/4
f 497/1/4 498/1/4 499/1/4
f 499/1/4 498/1/4 500/1/4
f 501/1/4 502/1/4 503/1/4
f 503/1/4 502/1/4 504/1/4
f 505/1/4 506/1/4 507/1/4
f 507/1/4 506/1/4 508/1/4
f 509/1/4 510/1/4 511/1/4
f 511/1/4 510/1/4 512/1/4
f 513/1/4 514/1/4 515/1/4
f 515/1/4 514/1/4 516/1/4
f 517/1/4 518/1/4 519/1/4
f 519/1/4 518/1/4 520/1/4
f 521/1/4 522/1/4 523/1/4
f 523/1/4 522/1/4 524/1/4
f 525/1/4 526/1/4 527/1/4
f 527/1/4 526/1/4 528/1/4
f 529/1/4 530/1/4 531/1/4
f 531/1/4 530/1/4 532/1/4
f 533/1/4 534/1/4 535/1/4
f 535/1/4 534/1/4 536/1/4
f 537/1/4 538/1/4 539/1/4
f 539/1/4 538/1/4 540/1/4
f 541/1/4 542/1/4 543/1/4
f 543/1/4 542/1/4 544/1/4
f 545/1/4 546/1/4 547/1/4
f 547/1/4 546/1/4 548/1/4
f 551/2/5 550/2/5 549/2/5
f 552/2/5 550/2/5 551/2/5
f 553/2/5 550/2/5 552/2/5
f 554/2/5 550/2/5 553/2/5
f 555/2/5 551/2/5 549/2/5
f 555/1/5 552/1/5 551/1/5
f 556/2/5 553/2/5 552/2/5
f 556/1/5 552/1/5 555/1/5
f 557/1/5 554/1/5 553/1/5
f 558/2/5 550/2/5 554/2/5
f 558/1/5 554/1/5 557/1/5
f 559/2/5 555/2/5 549/2/5
f 560/2/5 555/2/5 559/2/5
f 561/2/5 553/2/5 556/2/5
f 562/1/5 557/1/5 553/1/5
f 562/2/5 553/2/5 561/2/5
f 563/2/5 550/2/5 558/2/5
f 564/2/5 550/2/5 563/2/5
f 565/1/5 560/1/5 559/1/5
f 566/1/5 560/1/5 565/1/5
f 567/1/5 562/1/5 561/1/5
f 568/1/5 557/1/5 562/1/5
f 568/1/5 562/1/5 567/1/5
f 569/1/5 564/1/5 563/1/5
f 570/1/5 564/1/5 569/1/5
f 573/2/5 572/2/5 571/2/5
f 574/2/5 572/2/5 573/2/5
f 575/1/5 574/1/5 573/1/5
f 576/1/5 574/1/5 575/1/5
f 577/1/5 574/1/5 576/1/5
f 578/1/5 574/1/5 577/1/5
f 579/1/5 575/1/5 573/1/5
f 580/1/5 575/1/5 579/1/5
f 581/1/5 577/1/5 576/1/5
f 582/1/5 577/1/5 581/1/5
f 584/1/5 581/1/5 580/1/5
f 585/1/5 581/1/5 584/1/5
f 586/1/5 583/1/5 582/1/5
f 587/1/5 583/1/5 586/1/5
f 589/1/5 588/1/5 587/1/5
f 590/1/5 588/1/5 589/1/5
f 595/2/5 592/2/5 591/2/5
f 596/2/5 592/2/5 595/2/5
f 597/2/5 594/2/5 593/2/5
f 598/2/5 594/2/5 597/2/5
f 599/1/5 596/1/5 595/1/5
f 600/1/5 596/1/5 599/1/5
f 601/1/5 598/1/5 597/1/5
f 602/1/5 598/1/5 601/1/5
f 607/2/5 604/2/5 603/2/5
f 608/2/5 604/2/5 607/2/5
f 609/2/5 606/2/5 605/2/5
f 610/2/5 606/2/5 609/2/5
f 611/1/5 608/1/5 607/1/5
f 612/1/5 608/1/5 611/1/5
f 613/1/5 610/1/5 609/1/5
f 614/1/5 610/1/5 613/1/5
f 617/2/5 616/2/5 615/2/5
f 618/2/5 616/2/5 617/2/5
f 620/1/5 618/1/5 617/1/5
f 620/1/5 619/1/5 618/1/5
f 621/1/5 619/1/5 620/1/5
f 623/2/5 622/2/5 621/2/5
f 624/2/5 622/2/5 623/2/5
f 626/1/5 624/1/5 623/1/5
f 627/1/5 624/1/5 626/1/5
f 628/2/5 626/2/5 625/2/5
f 629/2/5 626/2/5 628/2/5
f 631/2/5 630/2/5 629/2/5
f 632/2/5 630/2/5 631/2/5
f 635/1/5 632/1/5 631/1/5
f 636/1/5 632/1/5 635/1/5
f 637/2/5 634/2/5 633/2/5
f 638/1/5 635/1/5 634/1/5
f 638/2/5 634/2/5 637/2/5
f 639/1/5 635/1/5 638/1/5
f 640/1/5 638/1/5 637/1/5
f 641/1/5 638/1/5 640/1/5
f 644/2/5 643/2/5 642/2/5
f 645/2/5 643/2/5 644/2/5
f 646/1/5 645/1/5 644/1/5
f 647/1/5 645/1/5 646/1/5
f 650/2/5 649/2/5 648/2/5
f 651/2/5 649/2/5 650/2/5
f 652/2/5 650/2/5 648/2/5
f 652/1/5 651/1/5 650/1/5
f 653/1/5 651/1/5 652/1/5
f 654/2/5 652/2/5 648/2/5
f 655/2/5 652/2/5 654/2/5
f 657/2/5 656/2/5 655/2/5
f 658/2/5 656/2/5 657/2/5
f 660/2/5 659/2/5 658/2/5
f 661/2/5 659/2/5 660/2/5
f 664/2/5 662/2/5 661/2/5
f 665/2/5 662/2/5 664/2/5
f 667/2/5 664/2/5 663/2/5
f 667/2/5 666/2/5 665/2/5
f 667/2/5 665/2/5 664/2/5
f 668/2/5 666/2/5 667/2/5
f 669/1/5 668/1/5 667/1/5
f 670/1/5 668/1/5 669/1/5
f 673/2/5 672/2/5 671/2/5
f 674/2/5 672/2/5 673/2/5
f 675/2/5 673/2/5 671/2/5
f 675/1/5 674/1/5 673/1/5
f 676/1/5 674/1/5 675/1/5
f 677/2/5 675/2/5 671/2/5
f 678/2/5 675/2/5 677/2/5
f 680/2/5 679/2/5 678/2/5
f 681/2/5 679/2/5 680/2/5
f 683/2/5 682/2/5 681/2/5
f 684/2/5 682/2/5 683/2/5
f 687/2/5 685/2/5 684/2/5
f 688/2/5 685/2/5 687/2/5
f 690/2/5 687/2/5 686/2/5
f 690/2/5 689/2/5 688/2/5
f 690/2/5 688/2/5 687/2/5
f 691/2/5 689/2/5 690/2/5
f 692/1/5 691/1/5 690/1/5
f 693/1/5 691/1/5 692/1/5
f 694/2/6 695/2/6 696/2/6
f 696/2/6 695/2/6 697/2/6
f 697/2/6 695/2/6 698/2/6
f 698/2/6 695/2/6 699/2/6
f 694/2/6 696/2/6 700/2/6
f 696/1/6 697/1/6 700/1/6
f 697/2/6 698/2/6 701/2/6
f 700/1/6 697/1/6 701/1/6
f 698/1/6 699/1/6 702/1/6
f 699/2/6 695/2/6 703/2/6
f 702/1/6 699/1/6 703/1/6
f 694/2/6 700/2/6 704/2/6
f 704/2/6 700/2/6 705/2/6
f 701/2/6 698/2/6 706/2/6
f 698/1/6 702/1/6 707/1/6
f 706/2/6 698/2/6 707/2/6
f 703/2/6 695/2/6 708/2/6
f 708/2/6 695/2/6 709/2/6
f 704/1/6 705/1/6 710/1/6
f 710/1/6 705/1/6 711/1/6
f 706/1/6 707/1/6 712/1/6
f 707/1/6 702/1/6 713/1/6
f 712/1/6 707/1/6 713/1/6
f 708/1/6 709/1/6 714/1/6
f 714/1/6 709/1/6 715/1/6
f 716/2/6 717/2/6 718/2/6
f 718/2/6 717/2/6 719/2/6
f 718/1/6 719/1/6 720/1/6
f 720/1/6 719/1/6 721/1/6
f 721/1/6 719/1/6 722/1/6
f 722/1/6 719/1/6 723/1/6
f 718/1/6 720/1/6 724/1/6
f 724/1/6 720/1/6 725/1/6
f 721/1/6 722/1/6 726/1/6
f 726/1/6 722/1/6 727/1/6
f 725/1/6 726/1/6 729/1/6
f 729/1/6 726/1/6 730/1/6
f 727/1/6 728/1/6 731/1/6
f 731/1/6 728/1/6 732/1/6
f 732/1/6 733/1/6 734/1/6
f 734/1/6 733/1/6 735/1/6
f 736/2/6 737/2/6 740/2/6
f 740/2/6 737/2/6 741/2/6
f 738/2/6 739/2/6 742/2/6
f 742/2/6 739/2/6 743/2/6
f 740/1/6 741/1/6 744/1/6
f 744/1/6 741/1/6 745/1/6
f 742/1/6 743/1/6 746/1/6
f 746/1/6 743/1/6 747/1/6
f 748/2/6 749/2/6 752/2/6
f 752/2/6 749/2/6 753/2/6
f 750/2/6 751/2/6 754/2/6
f 754/2/6 751/2/6 755/2/6
f 752/1/6 753/1/6 756/1/6
f 756/1/6 753/1/6 757/1/6
f 754/1/6 755/1/6 758/1/6
f 758/1/6 755/1/6 759/1/6
f 760/2/6 761/2/6 762/2/6
f 762/2/6 761/2/6 763/2/6
f 762/1/6 763/1/6 765/1/6
f 763/1/6 764/1/6 765/1/6
f 765/1/6 764/1/6 766/1/6
f 766/2/6 767/2/6 768/2/6
f 768/2/6 767/2/6 769/2/6
f 768/1/6 769/1/6 771/1/6
f 771/1/6 769/1/6 772/1/6
f 770/2/6 771/2/6 773/2/6
f 773/2/6 771/2/6 774/2/6
f 774/2/6 775/2/6 776/2/6
f 776/2/6 775/2/6 777/2/6
f 776/1/6 777/1/6 780/1/6
f 780/1/6 777/1/6 781/1/6
f 778/2/6 779/2/6 782/2/6
f 779/1/6 780/1/6 783/1/6
f 782/2/6 779/2/6 783/2/6
f 783/1/6 780/1/6 784/1/6
f 782/1/6 783/1/6 785/1/6
f 785/1/6 783/1/6 786/1/6
f 787/2/6 788/2/6 789/2/6
f 789/2/6 788/2/6 790/2/6
f 789/1/6 790/1/6 791/1/6
f 791/1/6 790/1/6 792/1/6
f 793/2/6 794/2/6 795/2/6
f 795/2/6 794/2/6 796/2/6
f 793/2/6 795/2/6 797/2/6
f 795/1/6 796/1/6 797/1/6
f 797/1/6 796/1/6 798/1/6
f 793/2/6 797/2/6 799/2/6
f 799/2/6 797/2/6 800/2/6
f 800/2/6 801/2/6 802/2/6
f 802/2/6 801/2/6 803/2/6
f 803/2/6 804/2/6 805/2/6
f 805/2/6 804/2/6 806/2/6
f 806/2/6 807/2/6 809/2/6
f 809/2/6 807/2/6 810/2/6
f 808/2/6 809/2/6 812/2/6
f 810/2/6 811/2/6 812/2/6
f 809/2/6 810/2/6 812/2/6
f 812/2/6 811/2/6 813/2/6
f 812/1/6 813/1/6 814/1/6
f 814/1/6 813/1/6 815/1/6
f 816/2/6 817/2/6 818/2/6
f 818/2/6 817/2/6 819/2/6
f 816/2/6 818/2/6 820/2/6
f 818/1/6 819/1/6 820/1/6
f 820/1/6 819/1/6 821/1/6
f 816/2/6 820/2/6 822/2/6
f 822/2/6 820/2/6 823/2/6
f 823/2/6 824/2/6 825/2/6
f 825/2/6 824/2/6 826/2/6
f 826/2/6 827/2/6 828/2/6
f 828/2/6 827/2/6 829/2/6
f 829/2/6 830/2/6 832/2/6
f 832/2/6 830/2/6 833/2/6
f 831/2/6 832/2/6 835/2/6
f 833/2/6 834/2/6 835/2/6
f 832/2/6 833/2/6 835/2/6
f 835/2/6 834/2/6 836/2/6
f 835/1/6 836/1/6 837/1/6
f 837/1/6 836/1/6 838/1/6
