# MagicaVoxel @ Ephtracy

# group
g piggie 1

# material
mtllib piggie 1.mtl
usemtl palette

# normals
vn -1 0 0
vn 1 0 0
vn 0 0 1
vn 0 0 -1
vn 0 -1 0
vn 0 1 0

# texcoords
vt 0.970703 0.5
vt 0.982422 0.5
vt 0.986328 0.5
vt 0.990234 0.5
vt 0.994141 0.5

# verts
v -4 3 -4
v -4 3 -5
v -4 3 -6
v -4 3 -7
v -4 4 -4
v -4 4 -5
v -4 4 -6
v -4 4 -7
v -4 5 -4
v -4 5 -7
v -3 0 -3
v -3 0 -4
v -3 0 -7
v -3 0 -8
v -3 1 -3
v -3 1 -4
v -3 1 -7
v -3 1 -8
v -3 2 -4
v -3 2 -7
v -3 3 -4
v -3 3 -5
v -3 3 -6
v -3 3 -7
v -3 4 -4
v -3 4 -7
v -3 5 -4
v -3 5 -7
v -3 6 -3
v -3 6 -8
v -2 6 -4
v -2 6 -5
v -2 6 -6
v -2 6 -7
v -2 7 -4
v -2 7 -5
v -2 7 -6
v -2 7 -7
v 2 0 -3
v 2 0 -4
v 2 0 -7
v 2 0 -8
v 2 1 -3
v 2 1 -4
v 2 1 -7
v 2 1 -8
v 2 2 -3
v 2 2 -4
v 2 2 -7
v 2 2 -8
v 5 5 -5
v 5 5 -6
v 5 6 -5
v 5 6 -6
v -1 0 -3
v -1 0 -4
v -1 0 -7
v -1 0 -8
v -1 2 -3
v -1 2 -4
v -1 2 -7
v -1 2 -8
v -1 6 -4
v -1 6 -5
v -1 6 -6
v -1 6 -7
v -1 7 -4
v -1 7 -5
v -1 7 -6
v -1 7 -7
v 4 0 -3
v 4 0 -4
v 4 0 -7
v 4 0 -8
v 4 2 -4
v 4 2 -7
v 4 4 -5
v 4 4 -6
v 4 5 -5
v 4 5 -6
v 4 6 -3
v 4 6 -8
v 5 4 -5
v 5 4 -6
v 5 5 -5
v 5 5 -6
v 6 5 -5
v 6 5 -6
v 6 6 -5
v 6 6 -6
v -3 0 -3
v -3 1 -3
v -3 6 -3
v -2 0 -3
v -2 1 -3
v -2 4 -3
v -2 5 -3
v -1 0 -3
v -1 2 -3
v -1 3 -3
v -1 4 -3
v -1 5 -3
v 0 3 -3
v 0 4 -3
v 2 0 -3
v 2 1 -3
v 2 2 -3
v 3 0 -3
v 3 1 -3
v 4 0 -3
v 4 6 -3
v -4 3 -4
v -4 4 -4
v -4 5 -4
v -3 3 -4
v -3 4 -4
v -3 5 -4
v -2 6 -4
v -2 7 -4
v -1 6 -4
v -1 7 -4
v 4 4 -5
v 4 5 -5
v 5 4 -5
v 5 5 -5
v 5 6 -5
v 6 5 -5
v 6 6 -5
v -2 6 -6
v -2 7 -6
v -1 6 -6
v -1 7 -6
v -3 0 -7
v -3 1 -7
v -3 2 -7
v -2 0 -7
v -2 1 -7
v -1 0 -7
v -1 2 -7
v 2 0 -7
v 2 1 -7
v 2 2 -7
v 3 0 -7
v 3 1 -7
v 4 0 -7
v 4 2 -7
v -3 0 -4
v -3 1 -4
v -3 2 -4
v -2 0 -4
v -2 1 -4
v -1 0 -4
v -1 2 -4
v 2 0 -4
v 2 1 -4
v 2 2 -4
v 3 0 -4
v 3 1 -4
v 4 0 -4
v 4 2 -4
v -2 6 -5
v -2 7 -5
v -1 6 -5
v -1 7 -5
v 4 4 -6
v 4 5 -6
v 5 4 -6
v 5 5 -6
v 5 6 -6
v 6 5 -6
v 6 6 -6
v -4 3 -7
v -4 4 -7
v -4 5 -7
v -3 3 -7
v -3 4 -7
v -3 5 -7
v -2 6 -7
v -2 7 -7
v -1 6 -7
v -1 7 -7
v -3 0 -8
v -3 1 -8
v -3 6 -8
v -2 0 -8
v -2 1 -8
v -2 4 -8
v -2 5 -8
v -1 0 -8
v -1 2 -8
v -1 3 -8
v -1 4 -8
v -1 5 -8
v 0 3 -8
v 0 4 -8
v 2 0 -8
v 2 1 -8
v 2 2 -8
v 3 0 -8
v 3 1 -8
v 4 0 -8
v 4 6 -8
v -3 0 -3
v -2 0 -3
v -1 0 -3
v 2 0 -3
v 3 0 -3
v 4 0 -3
v -3 0 -4
v -2 0 -4
v -1 0 -4
v 2 0 -4
v 3 0 -4
v 4 0 -4
v -3 0 -7
v -2 0 -7
v -1 0 -7
v 2 0 -7
v 3 0 -7
v 4 0 -7
v -3 0 -8
v -2 0 -8
v -1 0 -8
v 2 0 -8
v 3 0 -8
v 4 0 -8
v -1 2 -3
v 2 2 -3
v -3 2 -4
v -1 2 -4
v 2 2 -4
v 4 2 -4
v -3 2 -7
v -1 2 -7
v 2 2 -7
v 4 2 -7
v -1 2 -8
v 2 2 -8
v -4 3 -4
v -3 3 -4
v -4 3 -5
v -3 3 -5
v -4 3 -6
v -3 3 -6
v -4 3 -7
v -3 3 -7
v 4 4 -5
v 5 4 -5
v 4 4 -6
v 5 4 -6
v 5 5 -5
v 6 5 -5
v 5 5 -6
v 6 5 -6
v -4 5 -4
v -3 5 -4
v 4 5 -5
v 5 5 -5
v 4 5 -6
v 5 5 -6
v -4 5 -7
v -3 5 -7
v -3 6 -3
v 4 6 -3
v -2 6 -4
v -1 6 -4
v -2 6 -5
v -1 6 -5
v 5 6 -5
v 6 6 -5
v -2 6 -6
v -1 6 -6
v 5 6 -6
v 6 6 -6
v -2 6 -7
v -1 6 -7
v -3 6 -8
v 4 6 -8
v -2 7 -4
v -1 7 -4
v -2 7 -5
v -1 7 -5
v -2 7 -6
v -1 7 -6
v -2 7 -7
v -1 7 -7

# faces
f 5/4/1 2/4/1 1/4/1
f 6/3/1 3/3/1 2/3/1
f 6/4/1 2/4/1 5/4/1
f 7/4/1 4/4/1 3/4/1
f 7/3/1 3/3/1 6/3/1
f 8/4/1 4/4/1 7/4/1
f 9/3/1 6/3/1 5/3/1
f 9/3/1 7/3/1 6/3/1
f 9/3/1 8/3/1 7/3/1
f 10/3/1 8/3/1 9/3/1
f 15/1/1 12/1/1 11/1/1
f 16/1/1 12/1/1 15/1/1
f 17/1/1 14/1/1 13/1/1
f 18/1/1 14/1/1 17/1/1
f 19/3/1 16/3/1 15/3/1
f 20/3/1 18/3/1 17/3/1
f 21/3/1 19/3/1 15/3/1
f 21/3/1 20/3/1 19/3/1
f 22/3/1 20/3/1 21/3/1
f 23/3/1 20/3/1 22/3/1
f 24/3/1 18/3/1 20/3/1
f 24/3/1 20/3/1 23/3/1
f 25/3/1 21/3/1 15/3/1
f 26/3/1 18/3/1 24/3/1
f 27/3/1 25/3/1 15/3/1
f 28/3/1 18/3/1 26/3/1
f 29/3/1 27/3/1 15/3/1
f 29/3/1 28/3/1 27/3/1
f 30/3/1 18/3/1 28/3/1
f 30/3/1 28/3/1 29/3/1
f 35/3/1 32/3/1 31/3/1
f 36/3/1 32/3/1 35/3/1
f 37/3/1 34/3/1 33/3/1
f 38/3/1 34/3/1 37/3/1
f 43/1/1 40/1/1 39/1/1
f 44/1/1 40/1/1 43/1/1
f 45/1/1 42/1/1 41/1/1
f 46/1/1 42/1/1 45/1/1
f 47/3/1 44/3/1 43/3/1
f 48/3/1 44/3/1 47/3/1
f 49/3/1 46/3/1 45/3/1
f 50/3/1 46/3/1 49/3/1
f 53/3/1 52/3/1 51/3/1
f 54/3/1 52/3/1 53/3/1
f 55/3/2 56/3/2 59/3/2
f 59/3/2 56/3/2 60/3/2
f 57/3/2 58/3/2 61/3/2
f 61/3/2 58/3/2 62/3/2
f 63/3/2 64/3/2 67/3/2
f 67/3/2 64/3/2 68/3/2
f 65/3/2 66/3/2 69/3/2
f 69/3/2 66/3/2 70/3/2
f 71/3/2 72/3/2 75/3/2
f 73/3/2 74/3/2 76/3/2
f 75/3/2 76/3/2 77/3/2
f 77/3/2 76/3/2 78/3/2
f 75/3/2 77/3/2 79/3/2
f 78/3/2 76/3/2 80/3/2
f 71/3/2 75/3/2 81/3/2
f 79/3/2 80/3/2 81/3/2
f 75/3/2 79/3/2 81/3/2
f 80/3/2 76/3/2 82/3/2
f 81/3/2 80/3/2 82/3/2
f 76/3/2 74/3/2 82/3/2
f 83/3/2 84/3/2 85/3/2
f 85/3/2 84/3/2 86/3/2
f 87/3/2 88/3/2 89/3/2
f 89/3/2 88/3/2 90/3/2
f 94/1/3 92/1/3 91/1/3
f 95/3/3 93/3/3 92/3/3
f 95/1/3 92/1/3 94/1/3
f 96/3/3 93/3/3 95/3/3
f 97/3/3 93/3/3 96/3/3
f 98/3/3 95/3/3 94/3/3
f 98/3/3 96/3/3 95/3/3
f 99/3/3 96/3/3 98/3/3
f 100/3/3 96/3/3 99/3/3
f 101/5/3 97/5/3 96/5/3
f 101/3/3 96/3/3 100/3/3
f 102/3/3 93/3/3 97/3/3
f 102/5/3 97/5/3 101/5/3
f 103/2/3 101/2/3 100/2/3
f 103/3/3 100/3/3 99/3/3
f 104/3/3 102/3/3 101/3/3
f 104/2/3 101/2/3 103/2/3
f 107/3/3 103/3/3 99/3/3
f 107/3/3 104/3/3 103/3/3
f 108/1/3 106/1/3 105/1/3
f 109/3/3 107/3/3 106/3/3
f 109/1/3 106/1/3 108/1/3
f 110/3/3 109/3/3 108/3/3
f 111/3/3 93/3/3 102/3/3
f 111/3/3 109/3/3 110/3/3
f 111/3/3 102/3/3 104/3/3
f 111/3/3 107/3/3 109/3/3
f 111/3/3 104/3/3 107/3/3
f 115/4/3 113/4/3 112/4/3
f 116/3/3 114/3/3 113/3/3
f 116/4/3 113/4/3 115/4/3
f 117/3/3 114/3/3 116/3/3
f 120/3/3 119/3/3 118/3/3
f 121/3/3 119/3/3 120/3/3
f 124/3/3 123/3/3 122/3/3
f 125/3/3 123/3/3 124/3/3
f 127/3/3 126/3/3 125/3/3
f 128/3/3 126/3/3 127/3/3
f 131/3/3 130/3/3 129/3/3
f 132/3/3 130/3/3 131/3/3
f 136/1/3 134/1/3 133/1/3
f 137/3/3 135/3/3 134/3/3
f 137/1/3 134/1/3 136/1/3
f 138/3/3 137/3/3 136/3/3
f 139/3/3 135/3/3 137/3/3
f 139/3/3 137/3/3 138/3/3
f 143/1/3 141/1/3 140/1/3
f 144/3/3 142/3/3 141/3/3
f 144/1/3 141/1/3 143/1/3
f 145/3/3 144/3/3 143/3/3
f 146/3/3 142/3/3 144/3/3
f 146/3/3 144/3/3 145/3/3
f 147/1/4 148/1/4 150/1/4
f 148/3/4 149/3/4 151/3/4
f 150/1/4 148/1/4 151/1/4
f 150/3/4 151/3/4 152/3/4
f 151/3/4 149/3/4 153/3/4
f 152/3/4 151/3/4 153/3/4
f 154/1/4 155/1/4 157/1/4
f 155/3/4 156/3/4 158/3/4
f 157/1/4 155/1/4 158/1/4
f 157/3/4 158/3/4 159/3/4
f 158/3/4 156/3/4 160/3/4
f 159/3/4 158/3/4 160/3/4
f 161/3/4 162/3/4 163/3/4
f 163/3/4 162/3/4 164/3/4
f 165/3/4 166/3/4 167/3/4
f 167/3/4 166/3/4 168/3/4
f 168/3/4 169/3/4 170/3/4
f 170/3/4 169/3/4 171/3/4
f 172/4/4 173/4/4 175/4/4
f 173/3/4 174/3/4 176/3/4
f 175/4/4 173/4/4 176/4/4
f 176/3/4 174/3/4 177/3/4
f 178/3/4 179/3/4 180/3/4
f 180/3/4 179/3/4 181/3/4
f 182/1/4 183/1/4 185/1/4
f 183/3/4 184/3/4 186/3/4
f 185/1/4 183/1/4 186/1/4
f 186/3/4 184/3/4 187/3/4
f 187/3/4 184/3/4 188/3/4
f 185/3/4 186/3/4 189/3/4
f 186/3/4 187/3/4 189/3/4
f 189/3/4 187/3/4 190/3/4
f 190/3/4 187/3/4 191/3/4
f 187/5/4 188/5/4 192/5/4
f 191/3/4 187/3/4 192/3/4
f 188/3/4 184/3/4 193/3/4
f 192/5/4 188/5/4 193/5/4
f 191/2/4 192/2/4 194/2/4
f 190/3/4 191/3/4 194/3/4
f 192/3/4 193/3/4 195/3/4
f 194/2/4 192/2/4 195/2/4
f 190/3/4 194/3/4 198/3/4
f 194/3/4 195/3/4 198/3/4
f 196/1/4 197/1/4 199/1/4
f 197/3/4 198/3/4 200/3/4
f 199/1/4 197/1/4 200/1/4
f 199/3/4 200/3/4 201/3/4
f 193/3/4 184/3/4 202/3/4
f 201/3/4 200/3/4 202/3/4
f 195/3/4 193/3/4 202/3/4
f 200/3/4 198/3/4 202/3/4
f 198/3/4 195/3/4 202/3/4
f 209/1/5 204/1/5 203/1/5
f 210/3/5 205/3/5 204/3/5
f 210/1/5 204/1/5 209/1/5
f 211/3/5 205/3/5 210/3/5
f 212/1/5 207/1/5 206/1/5
f 213/3/5 208/3/5 207/3/5
f 213/1/5 207/1/5 212/1/5
f 214/3/5 208/3/5 213/3/5
f 221/1/5 216/1/5 215/1/5
f 222/3/5 217/3/5 216/3/5
f 222/1/5 216/1/5 221/1/5
f 223/3/5 217/3/5 222/3/5
f 224/1/5 219/1/5 218/1/5
f 225/3/5 220/3/5 219/3/5
f 225/1/5 219/1/5 224/1/5
f 226/3/5 220/3/5 225/3/5
f 230/3/5 228/3/5 227/3/5
f 231/3/5 228/3/5 230/3/5
f 233/3/5 230/3/5 229/3/5
f 233/3/5 232/3/5 231/3/5
f 233/3/5 231/3/5 230/3/5
f 234/3/5 232/3/5 233/3/5
f 235/3/5 232/3/5 234/3/5
f 236/3/5 232/3/5 235/3/5
f 237/3/5 235/3/5 234/3/5
f 238/3/5 235/3/5 237/3/5
f 241/4/5 240/4/5 239/4/5
f 242/4/5 240/4/5 241/4/5
f 243/3/5 242/3/5 241/3/5
f 244/3/5 242/3/5 243/3/5
f 245/4/5 244/4/5 243/4/5
f 246/4/5 244/4/5 245/4/5
f 249/3/5 248/3/5 247/3/5
f 250/3/5 248/3/5 249/3/5
f 253/3/5 252/3/5 251/3/5
f 254/3/5 252/3/5 253/3/5
f 257/3/6 258/3/6 259/3/6
f 259/3/6 258/3/6 260/3/6
f 255/3/6 256/3/6 261/3/6
f 261/3/6 256/3/6 262/3/6
f 263/3/6 264/3/6 265/3/6
f 265/3/6 264/3/6 266/3/6
f 263/3/6 265/3/6 267/3/6
f 266/3/6 264/3/6 268/3/6
f 263/3/6 267/3/6 271/3/6
f 267/3/6 268/3/6 271/3/6
f 268/3/6 264/3/6 272/3/6
f 271/3/6 268/3/6 272/3/6
f 269/3/6 270/3/6 273/3/6
f 273/3/6 270/3/6 274/3/6
f 263/3/6 271/3/6 275/3/6
f 272/3/6 264/3/6 276/3/6
f 263/3/6 275/3/6 277/3/6
f 275/3/6 276/3/6 277/3/6
f 276/3/6 264/3/6 278/3/6
f 277/3/6 276/3/6 278/3/6
f 279/3/6 280/3/6 281/3/6
f 281/3/6 280/3/6 282/3/6
f 283/3/6 284/3/6 285/3/6
f 285/3/6 284/3/6 286/3/6
