# MagicaVoxel @ Ephtracy

# group
g platform3

# material
mtllib platform3.mtl
usemtl palette

# normals
vn -1 0 0
vn 1 0 0
vn 0 0 1
vn 0 0 -1
vn 0 -1 0
vn 0 1 0

# texcoords
vt 0.474609 0.5
vt 0.478516 0.5

# verts
v -5 0 1.5
v -5 0 -1.5
v -5 1 1.5
v -5 1 -1.5
v 5 0 1.5
v 5 0 -1.5
v 5 1 1.5
v 5 1 -1.5
v -5 0 1.5
v -5 1 1.5
v -3 0 1.5
v -3 1 1.5
v -2 0 1.5
v -2 1 1.5
v 2 0 1.5
v 2 1 1.5
v 3 0 1.5
v 3 1 1.5
v 5 0 1.5
v 5 1 1.5
v -5 0 -1.5
v -5 1 -1.5
v 5 0 -1.5
v 5 1 -1.5
v -5 0 1.5
v -3 0 1.5
v -2 0 1.5
v 2 0 1.5
v 3 0 1.5
v 5 0 1.5
v -3 0 0.5
v -2 0 0.5
v -1 0 0.5
v 1 0 0.5
v 2 0 0.5
v 3 0 0.5
v -2 0 -0.5
v -1 0 -0.5
v 1 0 -0.5
v 2 0 -0.5
v -5 0 -1.5
v 5 0 -1.5
v -5 1 1.5
v -3 1 1.5
v -2 1 1.5
v 2 1 1.5
v 3 1 1.5
v 5 1 1.5
v -3 1 0.5
v -2 1 0.5
v -1 1 0.5
v 1 1 0.5
v 2 1 0.5
v 3 1 0.5
v -2 1 -0.5
v -1 1 -0.5
v 1 1 -0.5
v 2 1 -0.5
v -5 1 -1.5
v 5 1 -1.5

# faces
f 3/1/1 2/1/1 1/1/1
f 4/1/1 2/1/1 3/1/1
f 5/1/2 6/1/2 7/1/2
f 7/1/2 6/1/2 8/1/2
f 11/1/3 10/1/3 9/1/3
f 12/1/3 10/1/3 11/1/3
f 13/2/3 12/2/3 11/2/3
f 14/2/3 12/2/3 13/2/3
f 15/1/3 14/1/3 13/1/3
f 16/1/3 14/1/3 15/1/3
f 17/2/3 16/2/3 15/2/3
f 18/2/3 16/2/3 17/2/3
f 19/1/3 18/1/3 17/1/3
f 20/1/3 18/1/3 19/1/3
f 21/1/4 22/1/4 23/1/4
f 23/1/4 22/1/4 24/1/4
f 31/1/5 26/1/5 25/1/5
f 31/2/5 27/2/5 26/2/5
f 32/1/5 28/1/5 27/1/5
f 32/2/5 27/2/5 31/2/5
f 33/1/5 28/1/5 32/1/5
f 34/1/5 28/1/5 33/1/5
f 35/2/5 29/2/5 28/2/5
f 35/1/5 28/1/5 34/1/5
f 36/1/5 30/1/5 29/1/5
f 36/2/5 29/2/5 35/2/5
f 37/1/5 32/1/5 31/1/5
f 37/2/5 33/2/5 32/2/5
f 38/1/5 34/1/5 33/1/5
f 38/2/5 33/2/5 37/2/5
f 39/2/5 35/2/5 34/2/5
f 39/1/5 34/1/5 38/1/5
f 40/1/5 36/1/5 35/1/5
f 40/2/5 35/2/5 39/2/5
f 41/1/5 38/1/5 37/1/5
f 41/1/5 37/1/5 31/1/5
f 41/1/5 40/1/5 39/1/5
f 41/1/5 39/1/5 38/1/5
f 41/1/5 31/1/5 25/1/5
f 42/1/5 36/1/5 40/1/5
f 42/1/5 40/1/5 41/1/5
f 42/1/5 30/1/5 36/1/5
f 43/1/6 44/1/6 49/1/6
f 44/2/6 45/2/6 49/2/6
f 45/1/6 46/1/6 50/1/6
f 49/2/6 45/2/6 50/2/6
f 50/1/6 46/1/6 51/1/6
f 51/1/6 46/1/6 52/1/6
f 46/2/6 47/2/6 53/2/6
f 52/1/6 46/1/6 53/1/6
f 47/1/6 48/1/6 54/1/6
f 53/2/6 47/2/6 54/2/6
f 49/1/6 50/1/6 55/1/6
f 50/2/6 51/2/6 55/2/6
f 51/1/6 52/1/6 56/1/6
f 55/2/6 51/2/6 56/2/6
f 52/2/6 53/2/6 57/2/6
f 56/1/6 52/1/6 57/1/6
f 53/1/6 54/1/6 58/1/6
f 57/2/6 53/2/6 58/2/6
f 55/1/6 56/1/6 59/1/6
f 49/1/6 55/1/6 59/1/6
f 57/1/6 58/1/6 59/1/6
f 56/1/6 57/1/6 59/1/6
f 43/1/6 49/1/6 59/1/6
f 58/1/6 54/1/6 60/1/6
f 59/1/6 58/1/6 60/1/6
f 54/1/6 48/1/6 60/1/6
